<?xml version="1.0" encoding="utf-8"?>
<!-- Generator: Adobe Illustrator 27.5.0, SVG Export Plug-In . SVG Version: 6.00 Build 0)  -->
<svg version="1.1" id="Layer_1" xmlns="http://www.w3.org/2000/svg" xmlns:xlink="http://www.w3.org/1999/xlink" x="0px" y="0px"
	 viewBox="0 0 2000 2000" style="enable-background:new 0 0 2000 2000;" xml:space="preserve">
<g id="nanas">
</g>
<g id="XMLID_2517_">
	<g id="XMLID_2518_">
	</g>
</g>
<g id="XMLID_4745_">
	<g id="XMLID_4746_">
	</g>
</g>
<g id="XMLID_1791_">
	<g id="XMLID_1794_">
	</g>
</g>
<g id="XMLID_5151_">
	<g id="XMLID_5152_">
	</g>
</g>
<g id="XMLID_5149_">
	<g id="XMLID_5150_">
	</g>
</g>
<g id="XMLID_5138_">
	<g id="XMLID_5145_">
	</g>
</g>
<g id="XMLID_7129_">
</g>
<g id="XMLID_5526_">
</g>
<g id="XMLID_10456_">
	<path id="XMLID_7609_" style="fill:#D2EDF3;" d="M1551.891,1661.303c-107.857-30.525-203.615-97.33-313.242-120.711
		c-90.702-19.345-187.854-6.953-270.795,34.541c-74.857,37.45-138.56,97.694-218.655,122.002
		c-113.176,34.349-234.285-9.65-341.377-59.849c-107.092-50.199-217.119-108.7-335.306-104.184
		c-24.558,0.938-48.898,4.869-72.516,11.45V2000h2000v-432.769c-9.969,7.751-19.938,15.273-29.943,22.348
		C1850.676,1674.004,1692.582,1701.12,1551.891,1661.303z"/>
	<path id="XMLID_7679_" style="fill:#B9E3EB;" d="M1502.868,1293.716c-159.396,16.193-305.271-83.685-462.467-93.159
		c-108.107-6.515-213.13,36.733-307.568,89.753c-142.146,79.805-271.187,174.835-436.647,198.445
		C196.094,1503.037,94.085,1493.446,0,1460.306v84.247c23.617-6.581,47.957-10.511,72.516-11.45
		c118.187-4.516,228.214,53.985,335.306,104.184c107.092,50.199,228.201,94.198,341.377,59.849
		c80.095-24.309,143.797-84.552,218.655-122.002c82.942-41.494,180.093-53.886,270.795-34.541
		c109.627,23.382,205.385,90.187,313.242,120.711c140.691,39.817,298.785,12.7,418.166-71.724
		c10.005-7.075,19.974-14.597,29.943-22.348V985.302c-58.992,7.733-115.366,27.767-166.925,69.768
		C1721.35,1146.082,1661.727,1277.577,1502.868,1293.716z"/>
	<path id="XMLID_9368_" style="fill:#8FD5DF;" d="M0,1298.593v161.713c94.085,33.141,196.094,42.731,296.186,28.449
		c126.767-18.088,232.156-78.099,338.44-141.067c-14.214-5.228-28.433-10.409-42.671-15.463
		C400.194,1264.153,194.747,1250.823,0,1298.593z"/>
	<path id="XMLID_9370_" style="fill:#8FD5DF;" d="M1454.896,1201.569c-38,25.316-72.475,51.945-105.511,77.873
		c50.29,12.396,101.157,19.589,153.482,14.273c117.321-11.918,180.52-86.755,250.55-161.736
		C1654.369,1121.248,1555.695,1134.417,1454.896,1201.569z"/>
	<path id="XMLID_9683_" style="fill:#EBF6F7;" d="M0,0v913.595c219.304-6.189,453,222.999,676.351,180.857
		c152.925-28.856,232.849-166.631,329.102-272.855c101.667-112.199,235.015-188.843,384.77-214.25
		c115.287-19.559,233.166-15.469,349.928-9.133c82.129,4.456,165.586,9.889,245.719-8.651c4.788-1.108,9.494-2.317,14.131-3.613V0H0
		z"/>
	<path id="XMLID_9817_" style="fill:#51C4CB;" d="M1607.162,888.58c127.216-61.313,259.774-95.605,392.838-79.757V585.951
		c-4.637,1.296-9.343,2.506-14.131,3.613c-80.133,18.54-163.59,13.107-245.719,8.651c-116.762-6.336-234.641-10.426-349.928,9.133
		c-149.755,25.406-283.103,102.051-384.77,214.25c-5.64,6.224-11.222,12.56-16.768,18.972
		c102.624,30.715,199.463,80.409,305.105,100.7C1405.466,962.722,1506.114,937.28,1607.162,888.58z"/>
	<path id="XMLID_10366_" style="fill:#79CED6;" d="M1607.162,888.58c-101.048,48.701-201.696,74.142-313.372,52.691
		c-105.643-20.292-202.481-69.986-305.105-100.7c-8.065-2.414-16.162-4.725-24.306-6.881
		c-233.788-61.886-412.918,99.365-619.834,174.962c-5.132,1.875-10.271,3.69-15.413,5.456C218,1052.285,104.493,1064.817,0,1034.386
		v264.207c194.747-47.77,400.194-34.44,591.955,33.631c14.239,5.055,28.457,10.236,42.671,15.463
		c32.441-19.22,64.965-38.715,98.207-57.377c94.438-53.021,199.461-96.268,307.568-89.753
		c105.594,6.364,206.079,53.519,308.985,78.885c33.036-25.928,67.51-52.557,105.511-77.873
		c100.799-67.153,199.473-80.322,298.521-69.59c24.794-26.547,50.443-53.112,79.657-76.909c51.559-42,107.934-62.034,166.925-69.768
		v-176.48C1866.936,792.975,1734.378,827.267,1607.162,888.58z"/>
	<path id="XMLID_9819_" style="fill:#51C4CB;" d="M329.131,1014.108C217.907,963.819,107.233,910.569,0,913.595v120.791
		C104.493,1064.817,218,1052.285,329.131,1014.108z"/>
</g>
</svg>
