<svg width="1440" height="825" viewBox="0 0 1440 825" fill="none" xmlns="http://www.w3.org/2000/svg">
<rect width="1440" height="825" fill="#1E1E1E"/>
<g clip-path="url(#clip0_0_1)">
<rect width="1440" height="5997" transform="translate(0 -167)" fill="white"/>
<rect width="1440" height="995" transform="translate(0 -167)" fill="#B2D8FA"/>
<g clip-path="url(#clip1_0_1)">
<g opacity="0.57">
<path d="M1635 -167H-54V959.002H1635V-167Z" fill="url(#paint0_linear_0_1)"/>
</g>
<mask id="mask0_0_1" style="mask-type:luminance" maskUnits="userSpaceOnUse" x="-54" y="-167" width="1689" height="1127">
<path d="M1635 -167H-54V959.002H1635V-167Z" fill="white"/>
</mask>
<g mask="url(#mask0_0_1)">
<path opacity="0.36" d="M48.5449 -7.09223C48.5449 -22.2212 59.8747 -34.4856 73.8506 -34.4856C80.2643 -34.4856 86.115 -31.898 90.5762 -27.6395C95.6905 -30.8801 101.64 -32.7448 107.993 -32.7448C121.611 -32.7448 133.385 -24.2097 139.01 -11.8169C141.503 -14.0262 144.687 -15.3526 148.16 -15.3526C156.145 -15.3526 162.62 -8.34435 162.62 0.301083H49.484C48.876 -2.05451 48.5449 -4.52945 48.5449 -7.09223Z" fill="white"/>
<path d="M1226.66 21.623C1202.21 21.623 1181.05 35.6215 1170.71 56.0313C1165.98 52.0656 1159.89 49.6717 1153.23 49.6717C1143.37 49.6717 1134.75 54.9391 1129.98 62.7986C1114.9 31.5971 1082.96 10.0725 1045.99 10.0725C1011.63 10.0725 981.637 28.6718 965.467 56.3376C961.42 55.2251 957.166 54.6193 952.766 54.6193C932.14 54.6193 914.561 67.6719 907.841 85.9672H1338.85C1338.85 64.098 1321.13 46.368 1299.25 46.368C1292.26 46.368 1285.7 48.1876 1280 51.3674C1268.94 33.5203 1249.19 21.623 1226.66 21.623Z" fill="white"/>
<path opacity="0.36" d="M740.819 172.16C740.819 156.155 727.845 143.181 711.84 143.181C704.496 143.181 697.794 145.92 692.687 150.422C686.829 146.994 680.017 145.021 672.741 145.021C657.146 145.021 643.663 154.05 637.22 167.161C634.365 164.825 630.719 163.42 626.742 163.42C617.596 163.42 610.183 170.834 610.183 179.979H739.742C740.438 177.491 740.819 174.872 740.819 172.16Z" fill="white"/>
<g opacity="0.71">
<path d="M993.139 220.977C998.492 216.205 1002.58 210.025 1004.88 203.231C1005.35 201.842 1005.79 200.355 1006.88 199.371C1007.8 198.536 1009.06 198.193 1010.23 197.79C1014.27 196.41 1017.95 194.018 1020.85 190.897C1023.28 194.95 1025.71 199.006 1028.14 203.06C1031.13 200.423 1034.12 197.788 1037.11 195.151C1034.02 192.16 1030.92 189.172 1027.83 186.181C1031.09 185.134 1033.89 182.745 1035.44 179.695C1036.3 177.997 1036.85 176.027 1038.34 174.838C1039.34 174.038 1040.63 173.714 1041.86 173.352C1048.91 171.262 1055.36 167.143 1060.22 161.616C1056.06 161.751 1051.89 161.887 1047.73 162.022C1040.49 162.256 1032.45 162.835 1027.48 168.111C1025.35 170.374 1023.91 173.412 1021.17 174.872C1017.38 176.889 1012.76 175.115 1008.86 173.333C1008.84 177.067 1009.7 180.801 1011.33 184.154C1006.65 184.325 1002.5 187.55 999.981 191.505C997.461 195.462 996.288 200.101 995.15 204.652C993.682 210.534 992.211 216.419 990.743 222.301" fill="white"/>
</g>
<g opacity="0.71">
<path d="M468.953 236.838C473.722 233.104 477.501 228.116 479.803 222.513C480.273 221.369 480.726 220.139 481.694 219.367C482.519 218.711 483.591 218.491 484.606 218.214C488.079 217.268 491.31 215.45 493.923 212.975C495.754 216.522 497.582 220.072 499.413 223.618C502.075 221.558 504.737 219.497 507.399 217.434C504.953 214.748 502.507 212.061 500.062 209.375C502.863 208.667 505.352 206.803 506.822 204.317C507.642 202.932 508.212 201.301 509.531 200.38C510.419 199.761 511.52 199.556 512.574 199.317C518.634 197.934 524.286 194.811 528.682 190.415C525.165 190.305 521.647 190.194 518.132 190.084C512.02 189.892 505.21 189.947 500.744 194.126C498.828 195.919 497.447 198.403 495.058 199.484C491.754 200.979 487.964 199.236 484.766 197.525C484.552 200.671 485.072 203.862 486.273 206.778C482.314 206.67 478.645 209.165 476.31 212.363C473.974 215.561 472.734 219.409 471.531 223.184C469.977 228.064 468.421 232.942 466.867 237.822" fill="white"/>
</g>
<g opacity="0.29">
<path d="M606.875 441.38C608.852 431.944 610.183 422.044 611.001 411.913C613.253 384.001 611.611 354.858 608.402 325.456C608.012 321.882 611.458 321.601 612.064 325.157C618.113 360.709 622.628 396.428 625.555 431.985" fill="#9CBB9E"/>
<path d="M575.41 321.317C574.277 320.585 573.169 319.815 572.088 319.006C574.534 317.644 576.982 316.281 579.428 314.919C575.527 314.84 571.622 315.036 567.744 315.473C562.403 310.784 557.599 305.352 552.931 300.006C556.482 299.894 560.038 300.022 563.571 300.364C566.123 302.898 568.674 305.434 571.228 307.967C570.039 305.596 568.848 303.222 567.659 300.851C572.645 301.58 577.559 302.763 582.326 304.364C584.276 307.366 585.929 310.557 587.233 313.883C587.213 311.19 586.925 308.505 586.418 305.861C588.093 306.524 589.746 307.242 591.375 308.01C591.679 310.503 591.98 312.994 592.284 315.487C592.624 313.343 593.077 311.217 593.613 309.111C595 309.818 608.562 318.277 610.129 328.499L609.449 329.01C602.524 331.476 585.621 326.454 583.272 325.485C581.948 324.938 580.666 324.321 579.412 323.661C581.619 321.957 583.828 320.254 586.035 318.549C582.427 319.198 578.876 320.13 575.41 321.317Z" fill="#9CBB9E"/>
<path d="M597.572 341.164C595.928 341.842 594.243 342.452 592.541 343.01C592.275 340.277 592.246 337.583 592.466 334.98C590.809 336.759 590.169 339.403 589.568 341.966C589.404 342.673 589.237 343.38 589.07 344.087C584.015 345.571 578.817 346.841 573.869 348.521C573.716 346.508 573.802 344.54 574.151 342.691C572.667 344.706 571.572 347.06 570.849 349.618C567.956 350.744 565.179 352.066 562.609 353.723C565.582 344.326 573.104 338.518 580.211 332.626C587.582 326.517 601.842 324.582 613.8 328.26L613.989 328.267C611.131 333.131 606.823 336.572 601.88 339.164C601.206 336.594 600.571 334.025 600.031 331.458C598.887 334.514 598.069 337.772 597.572 341.164Z" fill="#9CBB9E"/>
<path d="M631.553 311.426C633.892 309.005 636.273 306.62 638.676 304.256C635.849 304.103 633.023 303.947 630.195 303.794C634.048 302.42 638.07 301.445 642.166 300.864C645.407 297.75 648.702 294.687 652.048 291.676C650.282 291.507 648.517 291.336 646.751 291.165C649.546 289.861 652.555 288.969 655.647 288.463C658.183 286.233 660.739 284.026 663.331 281.857C650.936 284.382 638.773 288.368 628.341 295.023C617.908 301.677 605.139 320.295 611.345 329.516L611.512 329.631C617.534 326.323 622.887 320.605 627.686 315.505C625.053 315.061 622.419 314.617 619.786 314.174C623.585 312.89 627.537 311.991 631.553 311.426Z" fill="#9CBB9E"/>
<path d="M648.58 315.473C656.779 315.309 665.008 316.804 672.316 320.551L672.527 320.623C667.902 324.13 662.765 326.886 657.349 328.879C654.563 327.535 651.75 326.253 648.899 325.058C650.703 326.677 652.505 328.294 654.309 329.913C650.757 331.014 647.104 331.793 643.413 332.248C639.885 330.01 636.376 327.737 632.919 325.386C635.059 327.76 637.148 330.179 639.209 332.624C628.965 333.199 618.578 331.284 609.305 326.749C619.164 321.966 629.458 317.835 640.274 316.191C641.206 316.05 642.143 315.935 643.082 315.833C642.814 317.52 642.711 319.234 642.817 320.941C644.735 319.119 646.659 317.297 648.58 315.473Z" fill="#9CBB9E"/>
<path d="M596.471 303.832C596.013 302.835 595.561 301.83 595.108 300.826C596.383 299.182 597.655 297.54 598.93 295.896C597.085 296.268 595.241 296.642 593.397 297.016C590.233 289.971 587.01 282.968 583.064 276.718C587.082 276.509 591.093 277.453 594.802 279.367C594.322 280.767 593.84 282.166 593.361 283.567C594.84 282.769 596.32 281.972 597.799 281.175C601.353 283.634 604.513 287.028 606.965 291.178C612.518 300.569 614.318 313.57 611.658 325.082L610.886 328.226C605.645 322.263 601.668 314.901 598.013 307.156C599.369 305.382 600.722 303.609 602.078 301.835C600.22 302.562 598.351 303.224 596.471 303.832Z" fill="#9CBB9E"/>
<path d="M629.67 351.401C628.22 350.35 626.821 349.235 625.47 348.066C625.518 347.902 625.565 347.737 625.608 347.573C626.304 344.913 626.272 342.128 626.236 339.38C624.964 341.229 622.88 342.511 621.273 344.073C616.079 338.669 611.87 332.37 608.983 325.539L615.706 326.312C631.382 332.748 643.925 346.051 649.134 361.761C643.795 359.398 638.433 357.025 633.483 353.964C633.451 353.944 633.42 353.924 633.388 353.903C633.341 351.194 633.316 348.483 633.348 345.774C632.181 347.686 630.952 349.562 629.67 351.401Z" fill="#9CBB9E"/>
</g>
<g opacity="0.29">
<path d="M1092.67 471.642C1095.56 457.84 1097.51 443.357 1098.71 428.535C1102 387.706 1099.6 345.071 1094.9 302.058C1094.33 296.831 1099.37 296.416 1100.26 301.619C1109.11 353.626 1115.71 405.88 1119.99 457.894" fill="#9CBB9E"/>
<path d="M1046.64 296.004C1044.99 294.932 1043.36 293.809 1041.78 292.624C1045.36 290.631 1048.94 288.638 1052.52 286.643C1046.82 286.528 1041.1 286.816 1035.43 287.454C1027.62 280.594 1020.59 272.647 1013.76 264.828C1018.96 264.661 1024.16 264.852 1029.33 265.352C1033.06 269.059 1036.79 272.766 1040.52 276.475C1038.78 273.005 1037.04 269.534 1035.3 266.064C1042.6 267.132 1049.78 268.861 1056.76 271.203C1059.61 275.595 1062.03 280.261 1063.93 285.127C1063.91 281.188 1063.48 277.261 1062.74 273.392C1065.2 274.36 1067.61 275.41 1069.99 276.536C1070.44 280.182 1070.88 283.826 1071.32 287.472C1071.82 284.335 1072.48 281.225 1073.27 278.144C1075.3 279.18 1095.13 291.552 1097.43 306.505L1096.43 307.255C1086.3 310.863 1061.57 303.517 1058.14 302.101C1056.2 301.301 1054.33 300.398 1052.49 299.432C1055.72 296.939 1058.95 294.446 1062.18 291.953C1056.91 292.908 1051.71 294.27 1046.64 296.004Z" fill="#9CBB9E"/>
<path d="M1079.06 325.039C1076.65 326.03 1074.19 326.924 1071.7 327.742C1071.31 323.742 1071.27 319.804 1071.59 315.993C1069.17 318.597 1068.23 322.463 1067.35 326.211C1067.11 327.244 1066.87 328.28 1066.62 329.314C1059.22 331.485 1051.62 333.343 1044.38 335.802C1044.16 332.856 1044.29 329.978 1044.8 327.273C1042.63 330.221 1041.03 333.665 1039.97 337.405C1035.73 339.054 1031.67 340.986 1027.91 343.409C1032.26 329.663 1043.26 321.166 1053.66 312.548C1064.45 303.609 1085.31 300.781 1102.8 306.161L1103.07 306.17C1098.89 313.286 1092.59 318.32 1085.36 322.112C1084.38 318.353 1083.45 314.595 1082.65 310.838C1080.98 315.309 1079.79 320.076 1079.06 325.039Z" fill="#9CBB9E"/>
<path d="M1128.77 281.535C1132.19 277.995 1135.67 274.507 1139.19 271.048C1135.05 270.823 1130.92 270.597 1126.78 270.372C1132.42 268.363 1138.3 266.936 1144.29 266.084C1149.03 261.529 1153.86 257.049 1158.75 252.642C1156.17 252.392 1153.58 252.144 1151 251.894C1155.09 249.987 1159.49 248.681 1164.02 247.942C1167.73 244.681 1171.46 241.452 1175.26 238.279C1157.12 241.97 1139.33 247.803 1124.07 257.538C1108.81 267.273 1090.13 294.509 1099.21 307.999L1099.45 308.167C1108.26 303.328 1116.09 294.966 1123.11 287.501C1119.26 286.852 1115.41 286.204 1111.55 285.555C1117.12 283.677 1122.9 282.364 1128.77 281.535Z" fill="#9CBB9E"/>
<path d="M1153.68 287.458C1165.68 287.217 1177.71 289.404 1188.4 294.885L1188.71 294.991C1181.94 300.121 1174.43 304.152 1166.51 307.068C1162.43 305.102 1158.32 303.227 1154.15 301.479C1156.78 303.846 1159.42 306.213 1162.06 308.582C1156.86 310.192 1151.52 311.332 1146.12 311.998C1140.96 308.724 1135.82 305.4 1130.77 301.961C1133.9 305.431 1136.95 308.971 1139.97 312.548C1124.98 313.385 1109.79 310.586 1096.22 303.954C1110.64 296.957 1125.7 290.915 1141.53 288.512C1142.89 288.305 1144.26 288.138 1145.63 287.99C1145.24 290.455 1145.09 292.964 1145.25 295.462C1148.06 292.791 1150.87 290.124 1153.68 287.458Z" fill="#9CBB9E"/>
<path d="M1077.45 270.428C1076.78 268.967 1076.12 267.501 1075.46 266.033C1077.32 263.63 1079.18 261.227 1081.05 258.822C1078.35 259.367 1075.65 259.912 1072.95 260.459C1068.32 250.156 1063.61 239.909 1057.84 230.768C1063.71 230.462 1069.58 231.843 1075.01 234.642C1074.3 236.689 1073.6 238.736 1072.9 240.785C1075.06 239.619 1077.23 238.452 1079.39 237.286C1084.59 240.884 1089.21 245.85 1092.8 251.919C1100.93 265.656 1103.56 284.675 1099.67 301.515L1098.54 306.114C1090.87 297.389 1085.05 286.62 1079.71 275.291C1081.69 272.696 1083.67 270.1 1085.65 267.505C1082.94 268.571 1080.2 269.541 1077.45 270.428Z" fill="#9CBB9E"/>
<path d="M1126.02 340.018C1123.9 338.479 1121.85 336.849 1119.87 335.14C1119.94 334.899 1120.01 334.658 1120.07 334.417C1121.09 330.525 1121.04 326.451 1120.99 322.432C1119.13 325.139 1116.08 327.01 1113.73 329.296C1106.13 321.387 1099.98 312.176 1095.75 302.182L1105.59 303.312C1128.52 312.726 1146.87 332.185 1154.49 355.167C1146.67 351.71 1138.83 348.24 1131.59 343.76C1131.54 343.731 1131.5 343.7 1131.45 343.673C1131.38 339.709 1131.35 335.743 1131.39 331.78C1129.69 334.579 1127.89 337.324 1126.02 340.018Z" fill="#9CBB9E"/>
</g>
<path d="M1385.76 361.36C1388.3 349.237 1390.01 336.516 1391.07 323.497C1393.96 287.636 1391.85 250.187 1387.73 212.408C1387.22 207.816 1391.65 207.454 1392.43 212.023C1400.2 257.705 1406 303.6 1409.76 349.287" fill="#9CBB9E"/>
<path d="M1345.34 207.091C1343.88 206.15 1342.46 205.163 1341.07 204.123C1344.21 202.371 1347.35 200.621 1350.5 198.869C1345.49 198.768 1340.47 199.02 1335.49 199.581C1328.62 193.556 1322.45 186.575 1316.45 179.707C1321.01 179.563 1325.58 179.727 1330.12 180.166C1333.4 183.422 1336.68 186.679 1339.96 189.935C1338.43 186.888 1336.9 183.839 1335.37 180.792C1341.78 181.729 1348.09 183.249 1354.22 185.305C1356.72 189.163 1358.85 193.261 1360.52 197.536C1360.49 194.074 1360.12 190.627 1359.47 187.228C1361.63 188.08 1363.75 189.001 1365.84 189.989C1366.23 193.192 1366.62 196.394 1367.01 199.594C1367.45 196.84 1368.03 194.108 1368.72 191.401C1370.5 192.311 1387.92 203.179 1389.94 216.313L1389.06 216.97C1380.17 220.139 1358.45 213.687 1355.43 212.442C1353.73 211.739 1352.08 210.946 1350.47 210.1C1353.31 207.911 1356.14 205.722 1358.98 203.531C1354.35 204.368 1349.79 205.566 1345.34 207.091Z" fill="#9CBB9E"/>
<path d="M1373.81 232.593C1371.7 233.464 1369.53 234.248 1367.35 234.966C1367.01 231.453 1366.97 227.994 1367.25 224.648C1365.12 226.933 1364.3 230.329 1363.53 233.622C1363.31 234.529 1363.1 235.439 1362.89 236.347C1356.39 238.254 1349.71 239.885 1343.35 242.047C1343.16 239.459 1343.27 236.932 1343.72 234.554C1341.81 237.144 1340.4 240.168 1339.48 243.454C1335.76 244.902 1332.19 246.6 1328.89 248.728C1332.71 236.653 1342.37 229.192 1351.5 221.621C1360.97 213.77 1379.3 211.286 1394.66 216.011L1394.91 216.018C1391.23 222.269 1385.7 226.688 1379.35 230.021C1378.48 226.719 1377.67 223.418 1376.97 220.119C1375.5 224.046 1374.45 228.233 1373.81 232.593Z" fill="#9CBB9E"/>
<path d="M1417.47 194.381C1420.48 191.271 1423.54 188.206 1426.62 185.168C1422.99 184.97 1419.36 184.771 1415.73 184.573C1420.68 182.81 1425.85 181.553 1431.11 180.808C1435.27 176.806 1439.51 172.872 1443.81 169.001C1441.54 168.782 1439.27 168.564 1437 168.345C1440.59 166.67 1444.46 165.524 1448.43 164.875C1451.69 162.01 1454.98 159.175 1458.31 156.387C1442.38 159.63 1426.75 164.753 1413.35 173.304C1399.94 181.855 1383.53 205.776 1391.51 217.626L1391.72 217.774C1399.46 213.523 1406.34 206.179 1412.51 199.623C1409.12 199.054 1405.74 198.484 1402.35 197.914C1407.24 196.263 1412.31 195.108 1417.47 194.381Z" fill="#9CBB9E"/>
<path d="M1439.35 199.583C1449.89 199.371 1460.46 201.292 1469.85 206.107L1470.12 206.199C1464.18 210.705 1457.58 214.246 1450.62 216.808C1447.04 215.081 1443.42 213.435 1439.76 211.899C1442.08 213.978 1444.4 216.058 1446.71 218.137C1442.15 219.551 1437.45 220.553 1432.71 221.137C1428.17 218.261 1423.67 215.342 1419.23 212.32C1421.97 215.369 1424.66 218.479 1427.31 221.619C1414.14 222.355 1400.8 219.896 1388.88 214.07C1401.55 207.924 1414.78 202.618 1428.68 200.506C1429.87 200.324 1431.08 200.177 1432.28 200.047C1431.94 202.213 1431.81 204.416 1431.94 206.609C1434.41 204.267 1436.88 201.925 1439.35 199.583Z" fill="#9CBB9E"/>
<path d="M1372.4 184.625C1371.81 183.341 1371.23 182.053 1370.65 180.763C1372.28 178.653 1373.92 176.54 1375.56 174.43C1373.19 174.91 1370.82 175.387 1368.45 175.867C1364.38 166.816 1360.24 157.817 1355.17 149.789C1360.33 149.521 1365.49 150.732 1370.25 153.192C1369.63 154.991 1369.02 156.788 1368.4 158.587C1370.3 157.563 1372.2 156.538 1374.1 155.513C1378.67 158.673 1382.72 163.035 1385.88 168.366C1393.01 180.432 1395.32 197.135 1391.91 211.928L1390.91 215.968C1384.18 208.305 1379.07 198.846 1374.38 188.895C1376.12 186.616 1377.86 184.337 1379.6 182.058C1377.21 182.992 1374.81 183.844 1372.4 184.625Z" fill="#9CBB9E"/>
<path d="M1415.05 245.747C1413.19 244.395 1411.39 242.963 1409.66 241.461C1409.72 241.249 1409.78 241.038 1409.83 240.826C1410.73 237.407 1410.69 233.831 1410.64 230.3C1409 232.676 1406.33 234.322 1404.26 236.329C1397.59 229.384 1392.18 221.292 1388.47 212.514L1397.11 213.507C1417.25 221.776 1433.37 238.869 1440.06 259.054C1433.2 256.018 1426.31 252.969 1419.95 249.035C1419.91 249.01 1419.87 248.983 1419.83 248.956C1419.76 245.474 1419.73 241.992 1419.77 238.509C1418.28 240.97 1416.7 243.382 1415.05 245.747Z" fill="#9CBB9E"/>
<path d="M1468.28 86.5955C1465.97 85.1046 1463.72 83.5395 1461.51 81.891C1466.5 79.1166 1471.48 76.3399 1476.46 73.5654C1468.52 73.4032 1460.57 73.8064 1452.67 74.6936C1441.79 65.1452 1432.01 54.0811 1422.5 43.1949C1429.73 42.9652 1436.97 43.2287 1444.17 43.9246C1449.37 49.0862 1454.56 54.2477 1459.76 59.4071C1457.34 54.5765 1454.91 49.746 1452.49 44.9154C1462.64 46.4018 1472.65 48.8092 1482.36 52.0701C1486.33 58.182 1489.7 64.679 1492.35 71.4553C1492.31 65.9694 1491.72 60.5038 1490.69 55.1193C1494.11 56.4682 1497.47 57.9297 1500.79 59.4949C1501.41 64.5686 1502.02 69.6447 1502.64 74.7184C1503.33 70.3518 1504.25 66.0212 1505.35 61.7334C1508.17 63.1747 1535.79 80.4002 1538.98 101.215L1537.6 102.258C1523.5 107.28 1489.07 97.0538 1484.29 95.081C1481.59 93.9685 1478.98 92.7096 1476.43 91.3674C1480.92 87.8971 1485.42 84.4268 1489.92 80.9565C1482.57 82.2851 1475.34 84.1813 1468.28 86.5955Z" fill="#9CBB9E"/>
<path d="M1777.86 308.312C1650.11 300.794 1509.37 315.505 1394.95 347.019C1347.54 360.076 1298.29 364.859 1249.26 361.024C1212.68 358.162 1173.63 358.482 1135.54 362.155C1097.97 365.778 1061.54 372.645 1029.22 381.984C987.863 393.935 945.062 400.286 902.026 399.407C875.342 398.862 847.755 400.452 821.422 404.191C772.495 411.138 728.401 425.443 700.603 443.387L844.508 462.754L1742.66 489.604L1777.86 308.312Z" fill="#F6DCA9"/>
<path d="M-122.568 349.312L-114.999 517.205L460.497 493.757C472.228 468.422 471.025 439.106 457.243 414.5C430.741 367.188 364.837 344.24 302.708 338.362C261.449 334.46 219.452 336.306 178.86 343.594C128.838 352.572 77.389 351.019 28.5679 336.901C-18.3638 323.33 -72.5064 326.276 -115.272 347.663" fill="#F6DCA9"/>
<path d="M464.445 379.274C453.466 373.584 444.296 364.459 438.554 353.507C447.032 351.829 456.347 355.752 461.069 362.992C454.347 347.143 454.464 328.526 461.387 312.762C469.654 325.199 474.284 340.022 474.572 354.955C472.354 333.766 475.82 312.009 484.513 292.557C492.91 312.732 494.192 335.791 488.077 356.772C495.518 347.375 504.159 338.93 513.725 331.708C512.856 343.411 507.746 354.757 499.554 363.161C509.775 355.903 521.43 350.672 533.647 347.855C527.654 356.995 519.506 364.711 510.052 370.194C515.64 370.23 521.227 370.266 526.812 370.302C520.9 377.858 512.016 383.022 502.526 384.425" fill="#9CBB9E"/>
<path d="M970.467 422.668C957.316 418.126 945.621 409.467 937.439 398.214C946.603 394.962 957.611 397.808 964.051 405.094C953.98 388.548 951.071 367.805 956.201 349.129C967.434 361.623 975.01 377.367 977.768 393.942C971.839 370.717 972.143 345.934 978.642 322.862C991.285 343.95 996.476 369.406 993.1 393.759C999.847 382.085 1008.09 371.273 1017.56 361.671C1018.5 374.84 1014.67 388.303 1006.92 398.997C1017.11 389.249 1029.23 381.522 1042.37 376.39C1037.19 387.542 1029.38 397.462 1019.75 405.109C1025.98 404.238 1032.2 403.364 1038.43 402.493C1033.08 411.868 1024.04 419.07 1013.7 422.18" fill="#9CBB9E"/>
<path d="M1751.71 981.653C1732.28 837.097 1729.31 690.334 1742.86 545.107C1743.99 533.048 1745.14 520.376 1740.29 509.273C1733.74 494.262 1717.99 485.799 1703.23 478.693C1591.17 424.747 1470.8 383.819 1346.56 378.191C1139.79 368.827 933.442 457.173 729.537 421.596C676.916 412.415 626.055 395.14 573.874 383.727C441.605 354.793 303.303 364.184 170.822 392.129C89.2615 409.334 0.701622 432.768 -74.2021 396.194L-63.3475 947.29" fill="#FFEABF"/>
<path d="M-67.5704 726.688C-6.48486 688.01 80.1113 695.113 152.833 715.349C225.554 735.588 295.098 767.244 371.457 772.823C520.625 783.722 663.818 693.19 811.363 714.521C872.989 723.43 928.077 751.183 987.043 768.591C1062.09 790.744 1144.22 795.89 1222.38 783.335C1303.59 770.289 1378.8 738.93 1458.1 719.333C1537.4 699.736 1627.42 693.052 1699.18 727.386L1704.71 1027.16L-82.321 1047.33L-99.5713 753.39" fill="#F6DCA9"/>
<path d="M-67.5703 736.157C-6.48481 697.746 80.1114 704.8 152.833 724.897C225.555 744.996 295.099 776.434 371.457 781.973C520.625 792.798 663.819 702.89 811.363 724.074C872.989 732.921 928.077 760.483 987.044 777.771C1062.09 799.771 1144.22 804.881 1222.38 792.413C1303.59 779.457 1378.8 748.315 1458.1 728.853C1537.4 709.391 1627.42 702.753 1699.18 736.851L1680.56 970.641L-61.6228 996.398L-67.5703 736.157Z" fill="#0B6DFD"/>
<path d="M-21.3729 858.119C49.7582 858.119 107.421 849.367 107.421 838.57C107.421 827.773 49.7582 819.02 -21.3729 819.02C-92.5039 819.02 -150.167 827.773 -150.167 838.57C-150.167 849.367 -92.5039 858.119 -21.3729 858.119Z" stroke="white" stroke-width="0.2835" stroke-miterlimit="10"/>
</g>
<path d="M1346.38 516.489C1355.28 491.518 1362.59 465.038 1368.59 437.734C1385.11 362.528 1391.47 282.51 1393.67 201.204C1393.93 191.325 1403.43 191.836 1403.75 201.748C1407.01 300.866 1406.02 399.866 1400.77 497.831" fill="#663D23"/>
<path d="M1305.32 177.659C1302.51 175.244 1299.77 172.736 1297.13 170.128C1304.3 167.325 1311.47 164.522 1318.65 161.719C1308.05 160.052 1297.34 159.138 1286.61 158.882C1273.8 144.12 1262.73 127.531 1252 111.23C1261.72 112.243 1271.36 113.92 1280.86 116.165C1286.87 124.019 1292.88 131.873 1298.89 139.728C1296.53 132.822 1294.17 125.916 1291.81 119.011C1305.12 122.855 1318.07 127.902 1330.46 134.038C1334.66 142.942 1337.98 152.248 1340.29 161.797C1341.24 154.453 1341.45 147.032 1341.06 139.639C1345.38 142.067 1349.61 144.637 1353.76 147.338C1353.66 154.24 1353.56 161.143 1353.46 168.045C1355.18 162.329 1357.21 156.706 1359.45 151.167C1362.97 153.612 1396.77 181.703 1397.24 210.133L1395.19 211.275C1375.41 215.419 1331.22 195.448 1325.18 191.934C1321.78 189.954 1318.52 187.794 1315.34 185.53C1321.99 181.708 1328.64 177.887 1335.29 174.065C1325.23 174.5 1315.2 175.716 1305.32 177.659Z" fill="#899958"/>
<path d="M1397.85 229.358C1394.05 230.66 1390.14 231.787 1386.19 232.786C1385.24 226.052 1384.84 219.466 1385.05 213.153C1381.35 217.14 1380.16 223.459 1379.05 229.59C1378.74 231.281 1378.43 232.973 1378.13 234.662C1366.36 237.199 1354.24 239.18 1342.76 242.222C1342.15 237.27 1342.12 232.484 1342.72 228.042C1339.46 232.643 1337.16 238.159 1335.76 244.249C1329.06 246.379 1322.66 249.006 1316.79 252.5C1322.68 230.186 1339.75 217.622 1355.83 204.762C1372.51 191.427 1405.95 189.773 1434.63 201.331L1435.08 201.385C1428.91 212.651 1419.15 220.126 1407.78 225.397C1405.89 218.976 1404.08 212.562 1402.5 206.174C1400.16 213.397 1398.63 221.18 1397.85 229.358Z" fill="#899958"/>
<path d="M1461.96 171.592C1469.24 165.869 1476.61 160.257 1484.03 154.708C1476.39 153.237 1468.74 151.767 1461.1 150.296C1472.11 147.988 1483.43 146.823 1494.81 146.765C1504.79 139.484 1514.91 132.369 1525.15 125.407C1520.4 124.286 1515.66 123.167 1510.91 122.046C1519.01 119.532 1527.54 118.221 1536.15 117.995C1543.89 112.866 1551.67 107.801 1559.54 102.855C1524.83 105.121 1490.21 111.46 1459.31 125.711C1428.41 139.961 1386.69 185.936 1400.17 213.371L1400.58 213.746C1418.22 206.97 1434.93 193.387 1449.91 181.272C1442.9 179.084 1435.88 176.897 1428.87 174.709C1439.71 172.62 1450.81 171.641 1461.96 171.592Z" fill="#899958"/>
<path d="M1506.85 188.958C1529.26 191.558 1551.12 198.693 1569.63 211.622L1570.18 211.896C1556.27 219.731 1541.25 225.326 1525.75 228.745C1518.66 224.048 1511.47 219.507 1504.15 215.19C1508.46 220.27 1512.77 225.348 1517.08 230.429C1507 232.107 1496.76 232.872 1486.53 232.738C1477.74 225.328 1469.03 217.832 1460.49 210.139C1465.43 217.4 1470.22 224.77 1474.93 232.197C1446.8 229.948 1419.22 220.87 1395.64 205.066C1424.28 195.702 1453.86 188.279 1483.94 187.824C1486.53 187.785 1489.13 187.822 1491.73 187.895C1490.37 192.389 1489.45 197.02 1489.11 201.711C1495.02 197.46 1500.94 193.21 1506.85 188.958Z" fill="#899958"/>
<path d="M1369.21 137.858C1368.33 134.967 1367.47 132.067 1366.61 129.161C1370.7 125.159 1374.78 121.156 1378.86 117.154C1373.69 117.484 1368.53 117.814 1363.36 118.144C1357.36 97.776 1351.19 77.4919 1342.76 59C1353.78 59.9251 1364.36 63.989 1373.76 70.58C1371.93 74.215 1370.1 77.8499 1368.27 81.4849C1372.59 79.8623 1376.92 78.2416 1381.25 76.619C1390.02 84.6424 1397.36 95.0661 1402.5 107.284C1414.14 134.935 1414.21 171.025 1402.68 201.401L1399.4 209.678C1387.34 191.481 1379.24 169.944 1372.17 147.483C1376.52 143.154 1380.87 138.824 1385.22 134.495C1379.9 135.789 1374.55 136.901 1369.21 137.858Z" fill="#899958"/>
<path d="M1441.96 279.815C1438.4 276.411 1435 272.853 1431.76 269.166C1431.95 268.735 1432.14 268.302 1432.32 267.871C1435.2 260.885 1436.15 253.283 1437.07 245.784C1432.92 250.349 1426.77 253.065 1421.8 256.722C1409.67 240.062 1400.54 221.34 1395.22 201.653L1413.24 206.258C1453.56 229.623 1482.79 270.535 1491.14 315.273C1477.47 306.849 1463.74 298.389 1451.39 288.206C1451.31 288.141 1451.24 288.072 1451.16 288.006C1452.04 280.604 1452.98 273.213 1454.07 265.84C1450.18 270.62 1446.14 275.276 1441.96 279.815Z" fill="#899958"/>
<path d="M1170 532C1190.63 486.002 1234.9 449.031 1287.54 433.833C1319.25 424.68 1355.35 423.552 1384.68 437.714C1418.25 453.924 1437.34 487.003 1448 519.819" fill="#FFEABF"/>
<path d="M325.912 556.304C313.094 534.232 264.98 517.14 213.386 516.324C161.791 515.509 111.035 531.043 94.6768 552.656" fill="#FFEABF"/>
<path d="M1070.8 722.754C1075.81 722.468 1080.76 721.612 1085.58 720.211C1088.62 719.326 1095.9 717.538 1093.58 712.811C1092.05 709.692 1087.55 708.267 1084.41 707.688C1080.74 707.012 1076.98 707.152 1073.27 706.913C1069.51 706.672 1065.4 706.125 1062.86 703.033C1061.39 701.247 1058.49 703.38 1059.97 705.175C1065.59 712.012 1075.12 709.971 1082.86 711.084C1084.8 711.363 1086.75 711.834 1088.45 712.84C1088.76 713.027 1090.41 713.957 1090.38 714.442C1090.36 715.09 1087.67 715.768 1087.23 715.919C1081.79 717.799 1076.12 718.853 1070.37 719.18C1068.06 719.31 1068.5 722.887 1070.8 722.754Z" fill="#FFFAF1"/>
<path d="M1066.66 723.468C1072.99 725.494 1079.31 727.519 1085.63 729.546C1088.91 730.595 1092.19 731.636 1095.47 732.696C1097.69 733.417 1100.76 734.214 1101.94 736.466C1102.37 737.295 1102.58 738.466 1102.15 739.346C1101.58 740.52 1100.14 740.43 1099.03 740.466C1095.75 740.578 1092.47 740.583 1089.19 740.594C1082.43 740.612 1075.66 740.479 1068.91 740.213C1066.62 740.123 1066.06 743.684 1068.37 743.774C1074.48 744.015 1080.6 744.148 1086.71 744.168C1089.75 744.177 1092.78 744.159 1095.82 744.112C1098.23 744.073 1101.26 744.463 1103.41 743.134C1107.14 740.828 1106.37 735.475 1103.57 732.784C1101.88 731.165 1099.65 730.296 1097.47 729.577C1094.49 728.595 1091.49 727.661 1088.5 726.701C1081.71 724.526 1074.92 722.351 1068.12 720.173C1065.94 719.475 1064.46 722.76 1066.66 723.468Z" fill="#E2DDD5"/>
<path d="M1076.92 744.229C1078.07 738.13 1071.58 733.124 1070.88 726.958C1070.4 722.697 1072.77 718.547 1072.55 714.266C1072.3 709.253 1068.45 704.99 1063.94 702.781C1059.43 700.572 1054.31 700.036 1049.32 699.531C1032.73 697.856 1016.13 696.18 999.537 694.505C992.526 693.798 984.867 693.239 979.01 697.157C974.63 700.087 972.083 705.01 969.72 709.719C967.822 713.502 965.903 717.982 967.748 721.792C968.621 723.598 970.234 724.936 971.923 726.015C989.806 737.412 1014.59 723.546 1034.27 731.455C1040.45 733.937 1045.64 738.423 1051.75 741.058C1058.17 743.826 1065.51 744.418 1072.29 742.72" fill="#FFFAF1"/>
<path d="M1072.85 742.9C1071.89 739.054 1068.55 735.788 1064.89 733.944C1060.28 731.631 1055.06 730.856 1050.27 728.969C1041.17 725.384 1033.86 717.901 1024.46 715.164C1013.37 711.937 1001.65 715.86 990.225 717.504C982.708 718.585 974.146 718.092 967.626 714.734C967.302 715.802 967.094 716.876 967.045 717.937L973.006 726.652C990.799 736.858 1014.99 723.709 1034.28 731.46C1040.45 733.942 1045.65 738.428 1051.76 741.062C1058.18 743.83 1065.52 744.422 1072.3 742.724L1072.85 742.9Z" fill="#E2DDD5"/>
<path d="M60.9961 569.409C57.3344 561.754 53.7019 554.081 50.0064 546.443C48.7971 543.943 47.1846 541.297 44.0994 541.153C40.9533 541.006 38.0888 543.193 35.7963 545.089C35.4787 545.35 35.9336 545.801 36.2467 545.54C38.5978 543.594 41.9262 541.031 45.1893 541.977C48.4412 542.921 49.7564 547.391 51.0558 550.102C54.1861 556.644 57.3164 563.186 60.4467 569.728C60.6223 570.1 61.174 569.776 60.9961 569.409Z" fill="#F2AE25"/>
<path d="M43.2793 562.556L74.6362 554.331C75.4311 554.124 76.2351 554.631 76.4333 555.466C76.6315 556.302 76.1495 557.146 75.3546 557.356L75.2668 557.378L80.5342 604.729C78.4331 605.49 76.2621 606.222 74.0282 606.916C69.5287 608.312 65.1553 609.438 61.0319 610.298L43.9099 565.591C43.1442 565.742 42.3898 565.249 42.2006 564.445C42.0025 563.61 42.4866 562.763 43.2793 562.556Z" fill="#CE4238"/>
<path d="M141.643 618.203C124.73 607.053 111.074 591.025 102.748 572.559C102.118 571.161 101.516 569.535 102.165 568.145C103.676 564.907 108.588 567.262 110.957 569.94C118.974 578.995 126.228 588.722 132.619 598.989C119.573 576.633 107.43 550.649 114.416 525.726C119.233 526.49 121.728 531.773 123.314 536.385C129.565 554.563 134.29 573.266 137.422 592.233C134.065 566.341 130.79 539.441 138.819 514.599C140.066 510.742 142.874 506.195 146.849 506.99C148.883 507.395 150.349 509.156 151.455 510.911C159.454 523.603 157.188 539.952 154.639 554.737C152.7 565.992 150.759 577.248 148.82 588.505C152.977 581.191 157.454 574.059 162.23 567.132C165.264 562.736 170.853 557.935 175.173 561.076C179.233 564.026 177.042 570.386 174.502 574.714C168.788 584.45 163.073 594.187 157.359 603.923C162.28 601.846 167.775 596.437 171.763 599.991C175.179 603.033 172.063 608.778 168.234 611.28C164.406 613.784 159.445 615.802 158.35 620.243" fill="#899958"/>
<path d="M221.42 654.151C206.171 628.602 173.447 608.064 134.533 599.624C111.094 594.539 84.4078 593.912 62.7301 601.779C37.9153 610.782 23.8065 629.156 15.9268 647.384" fill="#FFEABF"/>
<path d="M1439 586.798C1424.67 585.294 1410.85 579.297 1399.96 569.861C1408.44 564.436 1420.21 564.731 1428.41 570.573C1414.38 556.239 1406.59 535.996 1407.4 515.955C1421.65 525.931 1432.98 540.038 1439.64 556.11C1428.22 534.072 1422.73 508.999 1423.88 484.204C1441.57 502.517 1452.77 526.981 1455.06 552.338C1459.14 538.982 1464.92 526.148 1472.22 514.246C1476.26 527.31 1475.54 541.788 1470.23 554.388C1478.23 542.168 1488.65 531.537 1500.7 523.285C1498.09 535.748 1492.53 547.582 1484.61 557.552C1490.69 555.214 1496.76 552.879 1502.83 550.541C1499.63 561.249 1492.2 570.631 1482.5 576.187" fill="#899958"/>
<path d="M1404.96 593.676C1415.69 585.528 1438.7 578.977 1466.06 576.286C1482.55 574.665 1501.31 574.464 1516.56 576.973C1534 579.844 1543.93 585.704 1549.47 591.516" fill="#FFEABF"/>
<path d="M933.64 569.46C945.829 581.443 958.02 593.426 970.209 605.409C972.608 607.766 975.028 610.152 976.825 612.994C978.653 615.887 979.777 619.159 981.187 622.278C989.318 640.263 1006.92 653.04 1013.32 671.712C1015.33 677.583 1015.69 685.107 1010.83 688.975C1008.43 690.888 1005.24 691.459 1002.18 691.686C993.947 692.3 985.709 690.886 977.57 689.479C961.019 686.618 944.466 683.756 927.912 680.894C918.362 679.242 907.977 677.128 901.781 669.676C892.248 658.211 897.524 641.049 903.227 627.274C911.004 608.478 918.787 589.669 927.787 571.429" fill="#899958"/>
<g opacity="0.23">
<path d="M1013.32 671.71C1006.92 653.038 989.317 640.261 981.187 622.276C979.777 619.157 978.655 615.885 976.824 612.992C975.028 610.15 972.607 607.764 970.208 605.407C962.955 598.276 955.701 591.146 948.447 584.016C947.592 584.53 933.235 569.603 932.57 570.382C928.573 575.052 922.196 582.541 924.099 588.386C929.85 606.066 959.704 639.684 976.036 648.57C981.208 651.385 988.158 655.433 986.289 661.018C979.794 660.27 973.302 659.525 966.807 658.778C965.814 658.664 964.747 658.564 963.876 659.054C960.714 660.835 964.581 665.339 967.99 666.579C971.785 667.958 975.583 669.338 979.378 670.717C981.924 671.643 984.894 673.087 985.145 675.784C985.569 680.337 978.747 681.1 974.308 679.999C957.929 675.939 941.091 671.667 927.467 661.714C913.84 651.761 904.048 634.61 907.791 618.156L906.892 618.449C905.67 621.391 904.444 624.329 903.226 627.274C897.526 641.049 892.249 658.213 901.78 669.676C907.977 677.128 918.361 679.244 927.912 680.894C944.465 683.756 961.017 686.618 977.57 689.479C985.708 690.886 993.947 692.3 1002.18 691.686C1005.24 691.459 1008.43 690.888 1010.83 688.975C1015.69 685.105 1015.33 677.583 1013.32 671.71Z" fill="#505B21"/>
</g>
<path d="M934.098 579.04C932.064 575.401 927.569 580.974 927.879 585.27C928.188 589.565 931.282 592.835 934.112 595.542C943.696 604.71 953.278 613.878 962.862 623.045C965.028 625.116 967.333 627.266 969.971 627.768C972.611 628.27 975.61 626.416 975.8 623.158C975.934 620.883 974.726 618.739 973.543 616.878C963.074 600.407 949.43 586.97 934.232 578.161" fill="#505B21"/>
<path d="M812.632 662.51C816.103 662.563 819.573 662.616 823.045 662.669C824.407 662.689 825.864 662.744 827.002 663.617C828.996 665.147 829.012 668.275 828.81 670.861C828.738 671.79 828.628 672.807 828.01 673.426C827.237 674.203 826.013 674.046 824.948 673.844C820.181 672.938 815.415 672.032 810.648 671.126" fill="#E7987A"/>
<path d="M817.882 661.563C816.535 663.36 815.154 665.225 814.751 667.383C814.349 669.539 815.189 672.081 817.364 673.193C817.878 673.456 818.471 673.648 818.822 674.076C819.306 674.664 819.153 675.462 818.977 676.157C818.422 678.35 817.866 680.541 817.311 682.734C819.999 683.75 822.784 684.825 824.742 686.774C826.699 688.724 827.548 691.818 825.883 693.858C824.235 695.874 820.983 696.094 818.135 696.047C813.125 695.966 807.819 695.515 803.643 692.906C802.978 692.492 802.337 692.01 801.943 691.38C801.288 690.337 801.411 689.081 801.554 687.918C802.398 681.057 803.241 674.193 804.085 667.332C804.485 664.07 805.079 660.48 807.906 658.452C810.781 656.39 815.579 656.877 818.055 659.48" fill="#346174"/>
<path d="M923.033 672.914C915.579 667.658 905.478 667.359 896.105 667.283C873.14 667.093 854.774 660.676 831.809 660.486C828.668 660.461 824.698 660.092 822.609 660.331C820.616 660.559 817.764 676.153 817.935 678.003C818.204 680.915 824.447 680.066 827.254 680.988C837.017 684.195 838.725 684.986 851.704 687.755C865.892 690.784 894.709 697.541 909.173 699.081C924.606 700.725 932.394 699.815 938.3 695.107C941.095 692.879 942.949 687.006 942.174 683.669C941.452 680.56 940.126 677.593 938.237 674.935C922.747 653.16 906.794 633.584 887.673 614.73C875.056 602.29 861.196 590.254 844.823 584.844C835.261 581.686 823.696 581.49 817.529 588.861C812.309 595.099 812.7 604.853 815.597 613.076C821.136 628.806 834.145 640.896 847.368 651.043C867.04 666.139 888.44 678.738 910.852 688.422L923.033 672.914Z" fill="#8FAEB7"/>
<path d="M787.197 665.496C790.669 665.549 794.139 665.602 797.611 665.655C798.972 665.674 800.429 665.729 801.567 666.602C803.56 668.132 803.578 671.261 803.376 673.846C803.303 674.776 803.193 675.792 802.575 676.412C801.802 677.189 800.578 677.032 799.513 676.83C794.747 675.923 789.98 675.017 785.214 674.111" fill="#E7987A"/>
<path d="M792.446 664.551C791.098 666.347 789.717 668.215 789.315 670.37C788.913 672.526 789.752 675.068 791.926 676.18C792.44 676.443 793.034 676.637 793.383 677.063C793.868 677.652 793.715 678.45 793.538 679.142C792.983 681.335 792.428 683.526 791.873 685.719C794.56 686.733 797.345 687.81 799.303 689.76C801.261 691.71 802.112 694.803 800.445 696.843C798.797 698.86 795.545 699.079 792.697 699.032C787.687 698.952 782.381 698.501 778.205 695.892C777.54 695.476 776.899 694.995 776.502 694.366C775.847 693.322 775.971 692.067 776.114 690.904C776.957 684.042 777.801 677.179 778.644 670.317C779.044 667.055 779.639 663.466 782.465 661.438C785.341 659.376 790.139 659.863 792.614 662.465" fill="#346174"/>
<path d="M905.348 678.44C898.256 672.854 888.197 671.873 878.852 671.153C855.955 669.391 833.056 667.63 810.16 665.867C807.029 665.625 803.092 664.998 800.991 665.084C798.989 665.166 798.583 672.979 798.632 674.778C798.71 677.608 801.221 677.634 803.961 678.717C813.492 682.483 820.462 684.293 833.229 687.859C847.185 691.759 875.494 700.26 889.823 702.741C905.113 705.389 912.939 705.046 919.136 700.909C922.068 698.95 924.299 693.41 923.744 690.137C923.226 687.086 922.096 684.13 920.383 681.437C906.345 659.356 891.702 639.364 873.852 619.855C862.073 606.982 849.029 594.412 833.047 588.067C823.712 584.361 812.19 583.377 805.558 590.067C799.946 595.728 799.703 605.171 802.059 613.306C806.562 628.868 819.424 636.601 831.956 647.303C850.6 663.224 873.395 672.491 895.125 683.377" fill="#9BB9C4"/>
<path d="M939.032 584.389C906.518 572.681 886.708 553.122 873.062 519.441C867.828 506.522 865.145 497.629 870.331 484.483C873.06 477.564 877.62 476.342 879.935 475.601C883.536 474.447 887.363 477.076 889.189 480.548C891.016 484.02 891.353 488.147 891.841 492.115C896.288 528.382 906.945 548.683 936.521 566.625" fill="white"/>
<path d="M858.867 466.066C849.281 465.705 840.446 466.015 833.64 472.894C828.663 477.925 824.705 488.6 822.875 495.473C817.353 516.216 813.905 537.571 806.571 557.736C802.842 567.99 798.111 577.928 795.659 588.567C792.426 602.606 793.301 617.229 794.194 631.607C794.323 633.702 794.705 636.189 796.585 637.067C797.756 637.615 799.129 637.317 800.37 636.962C811.261 633.841 820.825 627.052 831.617 623.594C840.999 620.585 850.968 620.196 860.797 619.83C871.736 619.422 882.017 620.512 892.954 620.104C894.61 613.927 893.28 605.944 891.656 599.765C885.673 577.013 884.58 552.948 888.474 529.715C890.159 519.663 892.772 509.678 892.752 499.486C892.735 489.294 890.706 476.962 881.373 473.18C873.592 470.026 858.867 466.066 858.867 466.066Z" fill="#F2AE25"/>
<path d="M795.662 588.567C798.111 577.928 802.843 567.99 806.573 557.736C811.385 544.505 814.526 530.759 817.676 517.01C819 530.11 819.221 543.275 815.514 555.798C812.554 565.798 807.172 575.021 805.061 585.236C801.923 600.418 806.285 615.987 809.453 631.148C809.604 631.869 809.749 632.611 809.869 633.358C806.778 634.763 803.637 636.028 800.377 636.964C799.133 637.321 797.762 637.617 796.591 637.069C794.712 636.191 794.33 633.702 794.2 631.609C793.302 617.229 792.427 602.605 795.662 588.567Z" fill="#B78013"/>
<path d="M904.174 475.109C909.325 476.894 914.364 472.039 912.814 466.752C911.653 462.796 910.29 458.746 910.711 456.107C910.89 454.995 911.168 453.879 911.994 453.047C912.969 452.065 914.609 451.568 915.751 450.699C919.342 447.963 917.106 442.73 917.235 438.481C917.383 433.64 920.794 429.317 918.424 424.282C917.624 422.579 916.215 420.961 914.827 419.368C912.644 416.867 910.46 414.366 908.277 411.865C904.917 408.017 900.684 403.676 895.06 402.642C890.812 401.863 887.275 403.289 883.54 403.995C879.201 404.815 874.284 404.66 869.949 405.488C862.427 406.924 857.105 411.473 856.118 417.304C855.775 419.335 855.926 421.488 855.665 423.54C855.194 427.224 853.368 430.555 850.4 433.132C847.96 435.252 844.794 436.849 842.16 438.836C840.695 439.94 839.047 442.53 838.172 445.397C837.115 448.861 839.059 452.537 842.443 453.71C842.443 453.71 861.057 464.008 872.838 468.7C883.858 473.086 904.174 475.109 904.174 475.109Z" fill="#346174"/>
<path d="M858.412 463.237C861.219 459.181 865.11 453.526 867.652 449.858C867.652 449.858 867.652 449.854 867.652 449.85C868.1 449.211 868.545 448.571 868.99 447.93C869.151 447.698 869.314 447.471 869.475 447.239C868.27 444.528 867.615 441.341 867.78 437.385L867.794 437.063C864.712 435.358 862.409 432.557 862.678 430.041C862.956 427.418 866.589 425.609 870.143 426.739L870.045 427.267C872.503 422.957 876.832 419.484 882.079 417.385C887.754 415.113 895.292 414.415 901.475 417.703C906.441 420.343 909.498 425.086 910.365 429.584C911.232 434.083 910.204 438.403 908.815 442.486C908.746 442.686 908.672 442.883 908.601 443.081C907.636 445.966 907.926 445.656 907.605 447.761C907.567 448.008 907.434 450.017 908.497 451.354C909.335 452.41 909.07 454.038 907.838 454.55C907.151 454.834 906.565 454.862 905.792 454.724C905.023 454.587 904.352 454.232 903.903 453.689C902.856 455.619 901.724 457.51 900.5 459.35C898.485 462.378 895.137 465.611 890.569 464.514C888.709 464.067 885.955 462.859 884.437 461.754C884.027 461.456 883.617 461.164 883.209 460.872C880.732 466.031 877.729 472.81 875.983 476.546C874.58 479.549 868 479.124 862.578 475.336C856.05 470.776 857.074 465.171 858.412 463.237Z" fill="#E7987A"/>
<path d="M861.542 424.913C871.546 427.479 881.62 427.402 891.085 426.363C895.504 425.876 899.921 425.162 903.47 423.34C905.402 422.347 907.155 420.678 906.433 418.603C905.649 416.343 902.461 414.953 899.707 414.146C897.712 413.562 895.7 413.069 893.684 412.673C890.28 412.002 886.824 411.604 883.609 411.926C879.914 412.297 876.699 413.599 873.57 414.913C870.363 416.263 867.017 417.789 865.706 420.57" fill="#346174"/>
<path d="M958.3 557.432L962.68 553.495L957.615 547.858L953.477 551.577C952.047 552.861 950.126 553.464 948.2 553.232L945.099 552.861C942.208 552.516 939.328 553.418 937.182 555.347L902.791 586.248C901.828 587.113 901.761 588.61 902.642 589.591L915.327 603.708C916.208 604.689 917.702 604.781 918.665 603.916L952.906 573.151C955.138 571.147 956.348 568.236 956.211 565.205L956.099 562.732C956.005 560.709 956.813 558.769 958.3 557.432Z" fill="#346174"/>
<path d="M891.919 570.847C894.704 572.284 906.657 577.212 909.78 577.665C913.158 578.155 916.775 578.089 919.788 579.546C920.374 579.83 920.135 581.066 919.449 581.39C918.185 581.984 916.902 582.365 915.645 582.518C914.925 582.604 914.517 583.863 915.041 584.346C915.433 584.705 915.947 584.938 916.426 585.095C919.413 586.08 921.602 587.351 924.59 588.336C925.851 588.751 927.773 589.381 928.866 590.166C929.38 590.534 928.885 591.066 928.232 591.152C927.667 591.227 925.543 591.005 925.788 591.115C926.335 591.364 926.143 592.541 925.129 592.635C920.831 593.029 915.355 592.096 912.546 591.097C905.481 588.585 896.301 580.707 888.823 578.355" fill="#E7987A"/>
<path d="M895.989 579.925C895.452 581.935 893.245 582.971 891.386 582.086C854.442 564.509 839.65 546.416 831.088 518.166C826.447 502.852 823.323 492.468 829.59 477.598C832.889 469.771 838.24 468.485 840.959 467.692C845.188 466.46 849.625 469.546 851.708 473.545C853.791 477.547 854.122 482.258 854.631 486.795C859.179 527.393 863.83 549.056 896.26 569.787C897.49 570.574 898.084 572.071 897.704 573.497L895.989 579.925Z" fill="white"/>
<path fill-rule="evenodd" clip-rule="evenodd" d="M1253.11 486.086L1240.62 657.267C1239.92 666.858 1232.74 674.761 1223.12 674.761H1051.23C1041.61 674.761 1034.43 666.863 1033.73 657.267L1021.23 486.086H1253.11Z" fill="#9A5C00"/>
<path fill-rule="evenodd" clip-rule="evenodd" d="M1248.28 423.32C1259.82 423.32 1269.27 432.773 1269.27 444.313V486.086C1181.21 486.086 1093.14 486.086 1005.08 486.086V444.313C1005.08 432.767 1014.53 423.32 1026.07 423.32H1049.44C1052.19 423.32 1054.44 425.573 1054.44 428.319V433.627H1071.93V428.319C1071.93 425.57 1074.18 423.32 1076.93 423.32H1098.67C1101.42 423.32 1103.67 425.57 1103.67 428.319V433.627H1121.3V428.319C1121.3 425.57 1123.55 423.32 1126.3 423.32H1148.05C1150.8 423.32 1153.04 425.57 1153.04 428.319V433.627H1170.67V428.319C1170.67 425.57 1172.92 423.32 1175.67 423.32H1197.42C1200.17 423.32 1202.42 425.57 1202.42 428.319V433.627H1219.91V428.319C1219.91 425.57 1222.16 423.32 1224.91 423.32H1248.28Z" fill="#9A5C00"/>
<path fill-rule="evenodd" clip-rule="evenodd" d="M1071.93 433.627H1054.44V466.602C1054.44 469.076 1056.46 471.101 1058.94 471.101H1067.43C1069.91 471.101 1071.93 469.076 1071.93 466.602V433.627Z" fill="#513000"/>
<path fill-rule="evenodd" clip-rule="evenodd" d="M1121.16 433.627H1103.67V466.602C1103.67 469.076 1105.7 471.101 1108.17 471.101H1116.67C1119.14 471.101 1121.16 469.076 1121.16 466.602V433.627Z" fill="#513000"/>
<path fill-rule="evenodd" clip-rule="evenodd" d="M1170.4 433.627H1152.91V466.602C1152.91 469.076 1154.93 471.101 1157.4 471.101H1165.9C1168.37 471.101 1170.4 469.076 1170.4 466.602V433.627Z" fill="#513000"/>
<path fill-rule="evenodd" clip-rule="evenodd" d="M1219.63 433.627H1202.14V466.602C1202.14 469.076 1204.17 471.101 1206.64 471.101H1215.13C1217.61 471.101 1219.63 469.076 1219.63 466.602V433.627Z" fill="#513000"/>
<path d="M1269.27 486.085H1005.08V498.187H1269.27V486.085Z" fill="#513000"/>
<path opacity="0.5" fill-rule="evenodd" clip-rule="evenodd" d="M1051.23 674.761H1223.12C1232.74 674.761 1239.92 666.858 1240.62 657.267L1243.25 621.179H1031.1L1033.73 657.267C1034.43 666.863 1041.61 674.761 1051.23 674.761Z" fill="#513000"/>
<path fill-rule="evenodd" clip-rule="evenodd" d="M1058.44 515.821H1067.93C1070.13 515.821 1071.93 517.62 1071.93 519.82V599.545C1071.93 601.745 1070.13 603.545 1067.93 603.545H1058.44C1056.24 603.545 1054.44 601.746 1054.44 599.545V519.82C1054.44 517.62 1056.24 515.821 1058.44 515.821ZM1206.14 515.821H1215.63C1217.83 515.821 1219.63 517.62 1219.63 519.82V599.545C1219.63 601.745 1217.83 603.545 1215.63 603.545H1206.14C1203.94 603.545 1202.14 601.746 1202.14 599.545V519.82C1202.14 517.62 1203.94 515.821 1206.14 515.821ZM1156.9 515.821H1166.4C1168.6 515.821 1170.4 517.62 1170.4 519.82V599.545C1170.4 601.745 1168.6 603.545 1166.4 603.545H1156.9C1154.71 603.545 1152.91 601.746 1152.91 599.545V519.82C1152.91 517.62 1154.71 515.821 1156.9 515.821ZM1107.67 515.821H1117.17C1119.36 515.821 1121.16 517.62 1121.16 519.82V599.545C1121.16 601.745 1119.36 603.545 1117.17 603.545H1107.67C1105.47 603.545 1103.67 601.746 1103.67 599.545V519.82C1103.67 517.62 1105.47 515.821 1107.67 515.821Z" fill="#754600"/>
<path fill-rule="evenodd" clip-rule="evenodd" d="M1055.76 679.295H1067.85C1070.35 679.295 1072.39 677.256 1072.39 674.761H1051.23C1051.23 677.255 1053.27 679.295 1055.76 679.295Z" fill="#513000"/>
<path fill-rule="evenodd" clip-rule="evenodd" d="M1206.5 679.295H1218.59C1221.08 679.295 1223.12 677.256 1223.12 674.761H1201.97C1201.97 677.255 1204 679.295 1206.5 679.295Z" fill="#513000"/>
<path d="M1293.69 698.545C1293.43 694.259 1293.17 689.973 1292.91 685.685C1292.81 684.006 1292.74 682.204 1293.59 680.768C1295.09 678.253 1298.53 678.122 1301.39 678.283C1302.42 678.34 1303.54 678.44 1304.28 679.179C1305.2 680.105 1305.14 681.623 1305.02 682.943C1304.46 688.857 1303.89 694.773 1303.33 700.687" fill="#E7987A"/>
<path d="M1264.43 714.681C1271.59 714.979 1277.47 715.214 1284.63 715.512C1286.82 715.604 1304.22 715.336 1306.73 715.395C1307.55 715.414 1308.46 715.402 1309.09 714.806C1309.82 714.108 1309.87 712.894 1309.82 711.829C1309.65 707.617 1308.95 703.433 1307.76 699.424C1307.49 698.512 1307.08 697.494 1306.25 697.207C1305.48 696.944 1304.68 697.421 1303.98 697.853C1301.14 699.6 1300.95 699.585 1297.59 698.773C1296.76 698.573 1293.55 697.415 1292.77 697.062C1291.91 696.672 1290.93 696.835 1290.01 697.021C1282.07 698.622 1274.33 701.381 1267.06 705.201C1265.4 706.068 1263.7 707.064 1262.72 708.761C1261.74 710.457 1261.81 713.049 1263.34 714.147" fill="#346174"/>
<path d="M1354.64 698.849C1353.96 694.612 1353.29 690.373 1352.61 686.137C1352.35 684.475 1352.1 682.69 1352.8 681.178C1354.02 678.526 1357.37 678.049 1360.18 677.92C1361.19 677.875 1362.31 677.859 1363.1 678.522C1364.09 679.35 1364.18 680.866 1364.19 682.194C1364.23 688.133 1364.26 694.073 1364.29 700.012" fill="#E7987A"/>
<path d="M1326.27 715.846C1333.44 715.852 1339.31 715.846 1346.48 715.852C1348.68 715.854 1366.05 714.875 1368.56 714.83C1369.38 714.816 1370.29 714.765 1370.89 714.145C1371.6 713.417 1371.6 712.201 1371.51 711.14C1371.18 706.938 1370.32 702.786 1368.97 698.829C1368.67 697.929 1368.23 696.929 1367.38 696.678C1366.61 696.446 1365.83 696.954 1365.14 697.415C1362.38 699.279 1362.18 699.269 1358.79 698.596C1357.96 698.429 1354.71 697.405 1353.91 697.084C1353.03 696.729 1352.06 696.931 1351.15 697.154C1343.28 699.079 1335.65 702.152 1328.53 706.268C1326.91 707.201 1325.24 708.268 1324.33 710.002C1323.42 711.736 1323.59 714.324 1325.16 715.359" fill="#346174"/>
<path d="M1324.07 476.124C1319.92 537.42 1317.59 601.452 1308.28 661.986C1307.54 666.798 1307.66 686.851 1305.56 687.498C1302.63 688.4 1299.99 688.451 1297.08 688.38C1294.67 688.322 1291.94 686.78 1291.81 684.355C1287 595.7 1274.57 495.031 1281.1 406.704C1281.34 403.579 1317.18 402.681 1317.18 402.681" fill="#8FAEB7"/>
<path d="M1359.42 455.303C1363.08 517.646 1367.34 605.071 1365.72 667.353C1365.59 672.304 1366.7 686.901 1364.67 687.839C1361.83 689.151 1359.18 689.561 1356.23 689.889C1353.8 690.16 1351.58 688.533 1351.14 686.109C1334.94 597.419 1307.39 505.013 1302.66 415.101C1302.5 411.921 1341.47 404.799 1341.47 404.799" fill="#9BB9C4"/>
<path d="M1362.5 685.738C1362.46 629.537 1360.93 573.339 1357.9 517.22C1357.05 501.547 1356.09 485.885 1355.01 470.226C1354.86 468.029 1351.42 468.013 1351.57 470.226C1355.43 526.3 1357.81 582.472 1358.68 638.672C1358.92 654.36 1359.05 670.048 1359.06 685.738C1359.06 687.953 1362.5 687.957 1362.5 685.738Z" fill="#8FAEB7"/>
<path d="M1354.71 492.716C1343.72 486.141 1337.04 473.645 1337.13 460.906C1337.14 458.692 1333.7 458.69 1333.68 460.906C1333.59 474.847 1340.96 488.501 1352.97 495.686C1354.87 496.828 1356.61 493.854 1354.71 492.716Z" fill="#8FAEB7"/>
<path d="M1247.09 435.487C1245.75 435.593 1245.67 434.155 1245.59 432.816C1243.26 392.132 1245.56 357.878 1259.93 319.604C1262.47 312.817 1265.48 305.813 1272.01 301.994C1275.08 300.195 1278.76 299.465 1282.19 300.448C1289.44 302.531 1291.18 310.011 1291.1 316.584C1290.94 331.164 1284.5 344.818 1278.95 358.301C1269.05 382.35 1264.6 390.437 1257.61 432.149C1257.43 433.229 1257.28 434.901 1256.19 434.987L1247.09 435.487Z" fill="white"/>
<path d="M1359.77 457.635C1368.27 455.242 1358.36 428.345 1357.76 419.924C1355.09 382.561 1349.31 361.93 1346.03 323.296C1345.39 315.809 1340.73 299.234 1333.81 295.817C1330.02 293.942 1321.09 290.321 1316.79 290.703C1300.65 292.145 1299.24 292.137 1283.44 295.817C1280.17 296.576 1273.09 301.415 1270.46 303.449C1263.74 308.657 1260.91 327.323 1261.3 335.506C1263.31 377.446 1265.74 407.426 1271.48 445.895C1272.47 452.572 1279.36 456.78 1286.17 454.863L1312.46 448.869C1328.54 445.201 1345.43 448.237 1359.23 457.278L1359.77 457.635Z" fill="#F2AE25"/>
<path d="M1250.54 236.218C1248.41 236 1246 235.157 1245.13 233.003C1244.26 230.849 1246.58 227.856 1248.33 229.241C1247.03 223.745 1247.95 217.142 1252.18 213.972C1256.4 210.803 1263.85 213.768 1263.88 219.418C1263.97 213.029 1269.76 207.643 1275.6 208.349C1281.43 209.053 1286.2 215.51 1285.73 221.871C1288.72 216.005 1297.4 215.93 1301.69 220.918C1305.99 225.906 1306.07 233.972 1303.17 239.888C1309.12 241.14 1312.68 249.05 1311.01 255.339C1309.42 261.326 1304.19 265.46 1298.57 266.745C1297.51 268.177 1296.25 269.301 1294.76 270.003L1280.02 269.644C1265.58 266.987 1251.5 254.627 1251.69 239.892C1251.7 238.694 1251.25 237.454 1250.82 236.238C1250.73 236.224 1250.64 236.228 1250.54 236.218Z" fill="#346174"/>
<path d="M1252.86 267.793C1252.32 265.278 1252.66 265.653 1251.36 262.196C1251.27 261.959 1251.17 261.724 1251.08 261.484C1249.21 256.594 1247.72 251.426 1248.25 246.082C1248.78 240.737 1251.67 235.147 1256.8 232.093C1263.19 228.292 1271.4 229.266 1277.74 232.081C1283.39 234.59 1288.22 238.613 1291.29 243.542C1295.02 242.293 1299.08 244.511 1299.62 247.628C1300.12 250.557 1297.99 253.752 1294.94 255.739L1294.99 256.182C1295.57 261.369 1295.01 265.439 1293.7 268.838C1293.87 269.158 1294.03 269.474 1294.2 269.793C1294.62 270.635 1295.05 271.476 1295.48 272.316C1295.48 272.32 1295.48 272.322 1295.48 272.326C1297.93 277.145 1301.66 284.572 1304.36 289.903C1305.65 292.445 1305.25 295.193 1304.13 297.48C1302.92 299.938 1300.42 302.841 1300.42 302.841C1298.1 306.195 1292.05 307.953 1288.19 306.052L1285.68 304.514C1284.32 303.845 1283.88 301.59 1283.23 300.095C1281.61 296.299 1279.29 291.033 1277.18 286.225C1275.75 287.039 1274.07 287.751 1272.78 288.077C1267.94 289.299 1264.03 285.384 1261.58 281.735C1260.09 279.519 1258.7 277.245 1257.39 274.925C1256.96 275.562 1256.26 275.976 1255.44 276.123C1254.62 276.272 1253.98 276.229 1253.21 275.878C1251.83 275.244 1251.4 273.301 1252.21 272.059C1253.24 270.482 1252.92 268.087 1252.86 267.793Z" fill="#E7987A"/>
<path d="M1234.83 229.786C1235.35 224.906 1238.96 220.549 1243.54 219.261C1252.45 216.756 1261.7 225.196 1270.66 222.895C1272.79 222.348 1274.76 221.208 1276.91 220.726C1282.71 219.423 1288.77 223.364 1291.61 228.768C1294.45 234.172 1294.62 240.657 1293.82 246.736L1291.85 247.607C1291.81 247.565 1291.76 247.53 1291.72 247.489C1291.38 248.876 1291.04 250.268 1290.74 251.547C1290.42 252.922 1288.65 253.215 1287.92 252.01C1283.61 244.884 1279.43 240.576 1272.08 239.374C1270.16 239.303 1268.23 239.413 1266.34 239.741C1262.07 240.478 1258.01 242.146 1253.78 243.093C1249.55 244.043 1244.92 244.209 1241.1 242.087C1236.91 239.761 1234.31 234.666 1234.83 229.786Z" fill="#346174"/>
<path d="M1325.87 291.592C1346.03 295.819 1353.54 317.141 1361.85 334.261C1366.54 343.927 1371.08 353.698 1374.57 363.866C1376.73 370.202 1378.42 377.465 1375.23 383.356C1372.6 388.209 1367.31 390.894 1362.3 393.199C1338.19 404.275 1297.34 419.003 1291.46 419.128C1289.73 419.848 1287.7 407.39 1287.51 406.67C1287.1 405.095 1290.25 404.758 1293.66 402.806C1305.65 395.949 1316.81 387.33 1329.23 381.308C1340.31 375.939 1347.55 371.385 1346.79 366.804C1345.48 358.945 1334.02 347.266 1329.23 342.38C1321.71 334.702 1315.58 324.622 1313.2 314.138C1310.83 303.653 1313.26 297.235 1322.71 292.127" fill="white"/>
<path d="M1286.75 407.763C1285.75 407.159 1286.43 407.606 1284.2 407.235C1280.69 406.653 1277.6 405.911 1274.33 407.445C1273.16 407.996 1272.06 408.701 1271.33 409.603C1270.6 410.505 1270.28 411.629 1270.72 412.543" fill="#E7987A"/>
<path d="M1255.43 433.1C1256.88 435.409 1258.42 437.988 1259.41 440.595C1260.4 443.204 1261.88 445.563 1261.29 448.306C1261.08 449.29 1260.72 450.254 1260.11 450.981C1259.5 451.709 1258.61 452.17 1257.73 452.031" fill="#E7987A"/>
<path d="M1255.4 436.572C1256.75 438.937 1258.19 441.576 1259.07 444.222C1259.95 446.868 1261.33 449.287 1260.63 452.003C1260.38 452.978 1259.99 453.927 1259.35 454.63C1258.71 455.332 1257.8 455.758 1256.93 455.581" fill="#E7987A"/>
<path d="M1246.51 435.318C1245.18 442.496 1243.71 449.03 1243.49 456.301C1243.46 457.031 1243.45 457.786 1243.76 458.462C1244.06 459.139 1244.77 459.726 1245.59 459.71C1246.26 459.696 1246.84 459.292 1247.36 458.906C1250.58 456.524 1253.8 454.143 1257.02 451.762C1258.23 450.875 1258.84 450.732 1259.32 449.406C1259.76 448.208 1258.63 445.101 1258.33 443.869C1257.38 440.024 1257.82 438.62 1256.14 434.981" fill="#E7987A"/>
<path d="M1243.5 456.103C1243.5 459.214 1245.24 462.26 1247.32 464.475C1247.84 465.032 1248.51 465.616 1249.32 465.571C1250.14 465.526 1250.76 464.81 1250.89 464.082C1251.03 463.354 1250.81 462.617 1250.61 461.901C1249.78 458.988 1249.27 456.005 1249.07 453.005C1248.93 450.922 1248.97 448.729 1250.09 446.895" fill="#E7987A"/>
<path d="M1247.36 460.018C1248.92 461.418 1250.12 463.535 1252.17 463.896C1252.74 463.996 1253.41 463.904 1253.75 463.443C1253.96 463.164 1254.01 462.799 1254.05 462.452C1254.36 459.482 1253.48 455.381 1252.21 452.65" fill="#E7987A"/>
<path d="M1250.1 457.48C1251.66 458.88 1252.86 460.997 1254.91 461.358C1255.48 461.458 1256.14 461.365 1256.49 460.905C1256.7 460.626 1256.96 459.979 1256.99 459.63C1257.3 456.66 1256.22 452.843 1254.95 450.11" fill="#E7987A"/>
<path d="M1257.33 439.94C1258.82 445.538 1259.45 450.53 1259.82 456.275C1259.92 457.668 1259.09 458.927 1258.32 458.941C1257.93 458.947 1257 458.492 1256.72 458.241C1255.04 456.697 1254.94 454.73 1254.41 452.627C1254.07 451.285 1253.79 449.936 1253.55 448.578" fill="#E7987A"/>
<path fill-rule="evenodd" clip-rule="evenodd" d="M1202.75 482.894C1189.71 490.817 1200.44 497.125 1209.8 497.125H1250.93H1292.04C1301.41 497.125 1312.14 490.817 1299.1 482.894C1301.3 397.424 1266.9 394.945 1250.93 394.945C1234.95 394.946 1200.55 397.424 1202.75 482.894Z" fill="#899958"/>
<path fill-rule="evenodd" clip-rule="evenodd" d="M1265.87 373.67L1259.07 389.901L1257.29 392.739L1250.93 394.917L1244.56 392.739L1242.78 389.901L1235.99 373.67C1235.13 371.166 1237.44 369.317 1240.34 369.317C1243.24 369.317 1250.93 369.317 1250.93 369.317C1250.93 369.317 1258.61 369.317 1261.51 369.317C1264.41 369.317 1266.72 371.166 1265.87 373.67Z" fill="#899958"/>
<path fill-rule="evenodd" clip-rule="evenodd" d="M1259.07 389.901H1242.78C1240.02 389.901 1237.76 392.161 1237.76 394.917V394.92C1237.76 397.681 1240.02 399.938 1242.78 399.938H1259.07C1261.83 399.938 1264.09 397.681 1264.09 394.92V394.917C1264.09 392.16 1261.83 389.901 1259.07 389.901Z" fill="#100843"/>
<path fill-rule="evenodd" clip-rule="evenodd" d="M1244.67 448.517L1250.93 438.356C1251.04 438.019 1251.18 437.297 1250.7 436.517L1244 425.614V425.612C1243.97 425.569 1243.52 424.886 1243.07 425.622L1233.29 441.506C1232.98 441.999 1233.13 442.655 1233.63 442.96L1243.22 448.865C1243.72 449.17 1244.37 449.015 1244.67 448.517Z" fill="white"/>
<path fill-rule="evenodd" clip-rule="evenodd" d="M1255.74 441.78L1244.79 423.964C1244.62 423.698 1244.71 423.349 1244.97 423.185L1256.92 421.003C1257.6 420.879 1258.57 420.846 1258.82 421.242L1267.13 434.775C1267.42 435.168 1267.85 435.284 1268.28 435.021C1269.12 434.506 1269.95 433.991 1270.79 433.477C1271 433.349 1271.25 433.364 1271.44 433.515C1271.63 433.668 1271.7 433.913 1271.62 434.142L1267.71 445.501C1266.88 447.887 1267.43 447.46 1264.93 447.117L1253.15 445.496C1252.9 445.465 1252.72 445.292 1252.67 445.053C1252.62 444.817 1252.72 444.583 1252.93 444.456C1253.76 443.94 1254.6 443.428 1255.44 442.911C1255.87 442.651 1255.96 442.214 1255.74 441.78Z" fill="white"/>
<path fill-rule="evenodd" clip-rule="evenodd" d="M1262.72 452.132L1267.91 462.876C1268.14 463.15 1268.67 463.654 1269.59 463.671L1282.39 463.887H1282.39C1282.44 463.887 1283.26 463.874 1282.88 463.097L1274.75 446.303C1274.5 445.783 1273.87 445.561 1273.34 445.815L1263.2 450.721C1262.68 450.971 1262.46 451.608 1262.72 452.132Z" fill="white"/>
<path fill-rule="evenodd" clip-rule="evenodd" d="M1262.16 464.814L1283.08 465.168C1283.39 465.173 1283.64 465.433 1283.63 465.742L1279.04 476.992C1278.78 477.629 1278.29 478.465 1277.83 478.459L1261.94 478.189C1261.46 478.221 1261.13 478.52 1261.12 479.02C1261.1 480.003 1261.09 480.988 1261.07 481.97C1261.07 482.212 1260.91 482.419 1260.69 482.496C1260.46 482.572 1260.21 482.503 1260.06 482.311L1252.59 472.897C1251.02 470.921 1251.08 471.619 1252.72 469.693L1260.43 460.63C1260.59 460.444 1260.83 460.381 1261.06 460.469C1261.29 460.553 1261.43 460.761 1261.43 461.005C1261.41 461.986 1261.39 462.971 1261.38 463.954C1261.37 464.453 1261.68 464.767 1262.16 464.814Z" fill="white"/>
<path fill-rule="evenodd" clip-rule="evenodd" d="M1249.19 464.622L1237.27 464.283C1236.92 464.356 1236.22 464.598 1235.79 465.403L1229.7 476.66H1229.69C1229.67 476.705 1229.31 477.436 1230.17 477.461L1248.82 477.992C1249.4 478.009 1249.89 477.546 1249.9 476.965L1250.22 465.708C1250.24 465.126 1249.78 464.636 1249.19 464.622Z" fill="white"/>
<path fill-rule="evenodd" clip-rule="evenodd" d="M1238.02 458.428L1228.07 476.824C1227.92 477.095 1227.58 477.196 1227.3 477.049L1219.43 467.794C1218.99 467.268 1218.48 466.444 1218.7 466.033L1226.26 452.064C1226.45 451.62 1226.34 451.187 1225.9 450.948C1225.03 450.48 1224.17 450.013 1223.31 449.546C1223.09 449.428 1222.98 449.203 1223.02 448.962C1223.05 448.722 1223.23 448.541 1223.47 448.494L1235.26 446.204C1237.74 445.722 1237.09 445.456 1238.05 447.796L1242.54 458.815C1242.63 459.04 1242.57 459.287 1242.39 459.448C1242.21 459.61 1241.96 459.64 1241.75 459.524C1240.88 459.057 1240.02 458.589 1239.15 458.121C1238.71 457.883 1238.29 458.024 1238.02 458.428Z" fill="white"/>
<path d="M1290.8 418.814C1285.02 422.794 1282.97 423.946 1274.62 427.3C1273.83 427.616 1270.3 428.612 1269.46 428.675C1268.63 428.738 1267.74 428.39 1267.43 427.645C1267.18 427.027 1267.37 426.301 1267.57 425.636C1268.8 421.533 1270.02 417.429 1271.24 413.326C1271.7 411.796 1270.76 411.37 1271.96 410.266C1273.04 409.267 1278.23 408.72 1279.65 408.377C1284.06 407.312 1283.46 407.433 1287.51 406.355" fill="#E7987A"/>
<path d="M1281.69 423.759C1278.9 426.07 1268.41 429.873 1265.16 429.895C1264.35 429.901 1262.48 429.563 1262.03 428.896C1261.57 428.222 1261.84 427.213 1262.41 426.566C1262.98 425.919 1263.77 425.544 1264.54 425.171C1267.64 423.651 1270.63 421.839 1273.43 419.765C1275.38 418.326 1277.32 416.664 1278.28 414.436" fill="#E7987A"/>
<path d="M1268.27 425.836C1266.1 425.438 1263.43 425.807 1262.01 424.326C1261.61 423.912 1261.35 423.296 1261.61 422.712C1261.78 422.357 1262.1 422.076 1262.42 421.821C1265.12 419.638 1269.54 417.712 1272.85 417.006" fill="#E7987A"/>
<path d="M1269.06 421.768C1267.02 420.915 1264.34 420.707 1263.26 418.955C1262.96 418.467 1262.84 417.81 1263.22 417.294C1263.45 416.982 1264.06 416.462 1264.43 416.278C1267.54 414.72 1272.03 414.097 1275.41 414.112" fill="#E7987A"/>
<path d="M1285.46 407.108C1278.86 407.743 1273.73 409.666 1267.28 411.409C1265.72 411.831 1264.55 413.075 1264.75 413.804C1264.86 414.179 1265.62 414.899 1265.98 415.066C1268.15 416.09 1270.36 415.472 1272.83 415.203C1274.4 415.03 1275.97 414.811 1277.54 414.54" fill="#E7987A"/>
</g>
</g>
<defs>
<linearGradient id="paint0_linear_0_1" x1="-54" y1="396" x2="1635" y2="396" gradientUnits="userSpaceOnUse">
<stop stop-color="#4BAB83" stop-opacity="0.3"/>
<stop offset="1" stop-color="#4AB2C5" stop-opacity="0.8"/>
</linearGradient>
<clipPath id="clip0_0_1">
<rect width="1440" height="5997" fill="white" transform="translate(0 -167)"/>
</clipPath>
<clipPath id="clip1_0_1">
<rect width="1440" height="825" fill="white"/>
</clipPath>
</defs>
</svg>
