<svg width="360" height="640" viewBox="0 0 360 640" fill="none" xmlns="http://www.w3.org/2000/svg">
<g clip-path="url(#clip0_93_901)">
<rect width="360" height="640" fill="#B2D8FA"/>
<g clip-path="url(#clip1_93_901)">
<g opacity="0.57">
<path d="M590.531 -129.754H-721.963V745.116H590.531V-129.754Z" fill="url(#paint0_linear_93_901)"/>
</g>
<mask id="mask0_93_901" style="mask-type:luminance" maskUnits="userSpaceOnUse" x="-722" y="-130" width="1313" height="876">
<path d="M590.531 -129.754H-721.963V745.116H590.531V-129.754Z" fill="white"/>
</mask>
<g mask="url(#mask0_93_901)">
<path d="M273.214 16.8004C254.218 16.8004 237.773 27.6768 229.737 43.5346C226.062 40.4534 221.329 38.5934 216.159 38.5934C208.491 38.5934 201.795 42.686 198.085 48.7926C186.373 24.55 161.551 7.82602 132.819 7.82602C106.121 7.82602 82.8132 22.2771 70.2483 43.7726C67.1036 42.9082 63.7978 42.4376 60.3783 42.4376C44.3501 42.4376 30.6897 52.579 25.4678 66.7939H360.4C360.4 49.8022 346.624 36.0265 329.629 36.0265C324.195 36.0265 319.094 37.4403 314.664 39.9109C306.075 26.0443 290.728 16.8004 273.214 16.8004Z" fill="white"/>
<g opacity="0.71">
<path d="M91.7526 171.692C95.9123 167.985 99.0904 163.183 100.877 157.904C101.243 156.825 101.586 155.67 102.431 154.905C103.149 154.256 104.122 153.99 105.037 153.677C108.169 152.604 111.031 150.746 113.285 148.321C115.173 151.471 117.061 154.622 118.951 157.771C121.275 155.722 123.597 153.675 125.921 151.626C123.517 149.303 121.114 146.981 118.711 144.657C121.242 143.844 123.419 141.987 124.623 139.618C125.293 138.299 125.722 136.768 126.878 135.844C127.657 135.223 128.656 134.971 129.61 134.689C135.095 133.065 140.101 129.865 143.88 125.571C140.644 125.676 137.406 125.781 134.171 125.886C128.546 126.068 122.297 126.518 118.44 130.617C116.786 132.376 115.663 134.736 113.531 135.87C110.586 137.438 107.002 136.059 103.966 134.675C103.954 137.576 104.619 140.477 105.891 143.082C102.249 143.215 99.0273 145.721 97.0691 148.794C95.1108 151.868 94.1991 155.472 93.3154 159.008C92.1744 163.579 91.0316 168.151 89.8906 172.721" fill="white"/>
</g>
<g opacity="0.29">
<path d="M299.095 366.452C301.342 355.728 302.855 344.475 303.785 332.958C306.345 301.236 304.478 268.11 300.829 234.69C300.386 230.629 304.304 230.307 304.992 234.349C311.87 274.757 317.001 315.356 320.327 355.77" fill="#9CBB9E"/>
<path d="M263.329 229.986C262.041 229.154 260.781 228.28 259.552 227.36C262.333 225.812 265.116 224.263 267.896 222.713C263.464 222.624 259.024 222.848 254.616 223.343C248.543 218.013 243.081 211.838 237.775 205.763C241.813 205.634 245.855 205.782 249.871 206.171C252.773 209.051 255.673 211.931 258.574 214.813C257.221 212.116 255.869 209.42 254.516 206.724C260.184 207.553 265.77 208.897 271.188 210.717C273.405 214.129 275.283 217.754 276.765 221.535C276.742 218.475 276.413 215.423 275.839 212.417C277.745 213.17 279.623 213.985 281.473 214.86C281.817 217.693 282.162 220.524 282.507 223.357C282.894 220.919 283.408 218.503 284.017 216.109C285.594 216.914 301.01 226.527 302.793 238.146L302.019 238.728C294.148 241.531 274.931 235.824 272.262 234.723C270.757 234.102 269.302 233.4 267.875 232.65C270.385 230.713 272.894 228.776 275.404 226.839C271.305 227.581 267.266 228.639 263.329 229.986Z" fill="#9CBB9E"/>
<path d="M288.519 252.546C286.649 253.316 284.734 254.01 282.8 254.646C282.498 251.538 282.464 248.478 282.715 245.517C280.832 247.54 280.102 250.544 279.419 253.456C279.23 254.259 279.043 255.064 278.854 255.867C273.105 257.554 267.199 258.997 261.573 260.908C261.398 258.619 261.496 256.383 261.893 254.282C260.206 256.572 258.964 259.247 258.141 262.154C254.851 263.434 251.696 264.936 248.773 266.818C252.154 256.138 260.703 249.536 268.783 242.84C277.162 235.895 293.374 233.698 306.964 237.878L307.179 237.885C303.93 243.414 299.033 247.325 293.414 250.271C292.649 247.351 291.928 244.431 291.312 241.512C290.014 244.985 289.086 248.689 288.519 252.546Z" fill="#9CBB9E"/>
<path d="M327.147 218.744C329.809 215.994 332.513 213.284 335.245 210.596C332.032 210.421 328.818 210.246 325.604 210.071C329.986 208.51 334.555 207.401 339.212 206.74C342.895 203.2 346.642 199.72 350.445 196.295C348.438 196.101 346.43 195.909 344.425 195.714C347.601 194.232 351.022 193.218 354.538 192.644C357.42 190.11 360.325 187.601 363.272 185.136C349.181 188.003 335.356 192.535 323.497 200.099C311.637 207.663 297.119 228.825 304.175 239.306L304.364 239.437C311.208 235.677 317.293 229.18 322.751 223.38C319.757 222.876 316.765 222.372 313.77 221.868C318.091 220.408 322.583 219.388 327.147 218.744Z" fill="#9CBB9E"/>
<path d="M346.507 223.346C355.829 223.159 365.181 224.858 373.488 229.117L373.728 229.199C368.469 233.185 362.629 236.317 356.473 238.583C353.305 237.055 350.108 235.598 346.867 234.24C348.916 236.079 350.967 237.918 353.016 239.759C348.979 241.01 344.828 241.895 340.63 242.413C336.617 239.869 332.629 237.286 328.699 234.615C331.131 237.311 333.506 240.061 335.849 242.84C324.203 243.491 312.397 241.316 301.855 236.163C313.062 230.727 324.765 226.032 337.06 224.165C338.119 224.004 339.185 223.875 340.252 223.759C339.948 225.675 339.829 227.624 339.951 229.565C342.137 227.49 344.321 225.418 346.507 223.346Z" fill="#9CBB9E"/>
<path d="M287.269 210.115C286.751 208.979 286.235 207.84 285.72 206.699C287.167 204.832 288.616 202.965 290.064 201.097C287.967 201.52 285.869 201.943 283.772 202.369C280.174 194.364 276.512 186.402 272.026 179.3C276.592 179.062 281.154 180.135 285.37 182.31C284.824 183.9 284.278 185.491 283.732 187.083C285.414 186.177 287.096 185.27 288.777 184.364C292.816 187.16 296.409 191.018 299.199 195.734C305.511 206.407 307.556 221.184 304.534 234.268L303.656 237.841C297.699 231.063 293.177 222.695 289.024 213.892C290.564 211.877 292.104 209.859 293.644 207.844C291.532 208.671 289.406 209.425 287.269 210.115Z" fill="#9CBB9E"/>
<path d="M325.007 264.183C323.361 262.988 321.768 261.721 320.232 260.393C320.284 260.206 320.34 260.019 320.387 259.832C321.18 256.808 321.142 253.643 321.101 250.52C319.654 252.623 317.288 254.077 315.459 255.853C309.555 249.708 304.772 242.551 301.489 234.786L309.132 235.664C326.952 242.978 341.212 258.098 347.131 275.954C341.06 273.268 334.967 270.572 329.339 267.091C329.302 267.069 329.267 267.044 329.232 267.023C329.178 263.944 329.15 260.862 329.185 257.783C327.862 259.958 326.465 262.091 325.007 264.183Z" fill="#9CBB9E"/>
</g>
<path d="M365.438 160.903C364.308 160.172 363.202 159.406 362.12 158.597C364.563 157.236 367.006 155.876 369.449 154.515C365.556 154.436 361.657 154.632 357.784 155.068C352.45 150.387 347.653 144.963 342.991 139.627C346.537 139.515 350.088 139.642 353.615 139.984C356.163 142.514 358.711 145.044 361.259 147.574C360.071 145.207 358.883 142.837 357.695 140.47C362.673 141.198 367.58 142.379 372.339 143.976C374.286 146.974 375.937 150.158 377.237 153.479C377.218 150.79 376.929 148.111 376.423 145.471C378.096 146.132 379.746 146.848 381.372 147.616C381.675 150.104 381.978 152.592 382.28 155.079C382.62 152.939 383.071 150.816 383.607 148.713C384.991 149.42 398.532 157.864 400.097 168.069L399.418 168.579C392.504 171.041 375.625 166.028 373.28 165.061C371.959 164.515 370.68 163.899 369.427 163.241C371.632 161.54 373.835 159.84 376.04 158.137C372.444 158.788 368.896 159.719 365.438 160.903Z" fill="#9CBB9E"/>
<path d="M387.565 180.717C385.922 181.395 384.24 182.003 382.543 182.562C382.277 179.832 382.247 177.144 382.467 174.544C380.814 176.32 380.173 178.959 379.573 181.517C379.408 182.222 379.242 182.929 379.078 183.634C374.029 185.116 368.84 186.383 363.898 188.063C363.744 186.052 363.83 184.089 364.18 182.241C362.698 184.254 361.606 186.604 360.885 189.156C357.996 190.281 355.223 191.601 352.656 193.254C355.626 183.872 363.135 178.075 370.231 172.193C377.59 166.093 391.83 164.163 403.768 167.834L403.957 167.839C401.103 172.697 396.802 176.13 391.867 178.719C391.195 176.154 390.561 173.589 390.02 171.026C388.878 174.077 388.062 177.33 387.565 180.717Z" fill="#9CBB9E"/>
<path d="M782 324.435C687.486 318.856 583.357 329.774 498.706 353.166C463.63 362.858 427.193 366.408 390.922 363.561C363.854 361.437 334.965 361.674 306.783 364.4C278.988 367.09 252.032 372.186 228.122 379.118C197.527 387.989 165.861 392.703 134.021 392.051C114.279 391.647 93.8692 392.827 74.3873 395.602C38.1892 400.758 5.56658 411.376 -15 424.695L91.4667 439.07L755.957 459L782 324.435Z" fill="#F6DCA9"/>
<path d="M762 823C747.631 716.151 745.431 607.67 755.456 500.325C756.289 491.411 757.138 482.045 753.557 473.838C748.713 462.742 737.064 456.487 726.152 451.235C643.3 411.36 554.308 381.108 462.448 376.948C309.569 370.027 157.006 435.328 6.2478 409.031C-32.6572 402.245 -70.2617 389.476 -108.842 381.04C-206.636 359.653 -308.89 366.594 -406.84 387.25C-467.142 399.967 -532.62 417.289 -588 390.255L-579.975 797.6" fill="#FFEABF"/>
<path d="M-732.508 564.615C-685.039 534.563 -617.747 540.082 -561.236 555.805C-504.725 571.53 -450.684 596.126 -391.347 600.46C-275.431 608.929 -164.158 538.587 -49.5034 555.161C-1.61487 562.083 41.1934 583.647 87.0152 597.172C145.332 614.384 209.154 618.382 269.891 608.628C332.999 598.491 391.44 574.126 453.065 558.9C514.689 543.674 584.638 538.481 640.403 565.157L644.704 798.073L-743.97 813.747L-757.375 585.361" fill="#F6DCA9"/>
<path d="M-732.508 571.972C-685.039 542.127 -617.747 547.608 -561.236 563.223C-504.725 578.839 -450.684 603.265 -391.347 607.569C-275.431 615.98 -164.158 546.124 -49.5035 562.583C-1.61505 569.457 41.1932 590.872 87.015 604.304C145.332 621.398 209.154 625.368 269.891 615.681C332.999 605.615 391.44 581.418 453.064 566.297C514.688 551.175 584.637 546.018 640.403 572.51L625.937 754.159L-727.886 774.171L-732.508 571.972Z" fill="#0B6DFD"/>
</g>
<path d="M334.342 138.036C332.156 136.159 330.032 134.21 327.975 132.185C333.549 130.007 339.125 127.829 344.699 125.651C336.465 124.355 328.14 123.645 319.803 123.447C309.846 111.977 301.246 99.0876 292.908 86.4227C300.46 87.2095 307.95 88.5122 315.333 90.2569C320.004 96.359 324.674 102.461 329.345 108.565C327.511 103.199 325.677 97.8327 323.843 92.4682C334.188 95.4548 344.252 99.376 353.881 104.143C357.145 111.061 359.721 118.292 361.518 125.712C362.254 120.005 362.418 114.239 362.112 108.495C365.47 110.382 368.76 112.379 371.984 114.477C371.906 119.84 371.828 125.203 371.75 130.566C373.089 126.125 374.663 121.756 376.406 117.452C379.138 119.352 405.407 141.178 405.77 163.267L404.182 164.154C388.808 167.374 354.468 151.857 349.777 149.127C347.131 147.588 344.597 145.91 342.132 144.151C347.299 141.182 352.465 138.213 357.632 135.244C349.812 135.581 342.02 136.526 334.342 138.036Z" fill="#899958"/>
<path d="M406.248 178.204C403.292 179.216 400.257 180.091 397.187 180.868C396.445 175.635 396.14 170.519 396.303 165.613C393.428 168.712 392.497 173.621 391.634 178.384C391.396 179.698 391.157 181.013 390.919 182.326C381.777 184.296 372.358 185.835 363.433 188.199C362.964 184.351 362.938 180.633 363.407 177.181C360.871 180.756 359.083 185.043 357.994 189.774C352.788 191.429 347.816 193.47 343.252 196.185C347.835 178.848 361.097 169.085 373.593 159.094C386.551 148.733 412.543 147.448 434.828 156.428L435.176 156.47C430.383 165.224 422.796 171.032 413.966 175.127C412.493 170.137 411.089 165.154 409.857 160.191C408.044 165.803 406.848 171.85 406.248 178.204Z" fill="#899958"/>
<path d="M229.188 413.348C245.218 377.609 279.619 348.883 320.528 337.075C345.168 329.963 373.222 329.087 396.013 340.091C422.099 352.685 436.933 378.387 445.217 403.884" fill="#FFEABF"/>
<path d="M342.104 561.558C345.997 561.336 349.84 560.671 353.585 559.582C355.951 558.895 361.605 557.505 359.801 553.833C358.611 551.409 355.113 550.302 352.674 549.852C349.821 549.327 346.9 549.436 344.018 549.25C341.097 549.063 337.907 548.638 335.933 546.235C334.792 544.848 332.538 546.505 333.684 547.899C338.049 553.212 345.46 551.626 351.475 552.491C352.98 552.708 354.492 553.073 355.813 553.855C356.058 554.001 357.337 554.723 357.32 555.099C357.297 555.603 355.209 556.13 354.871 556.247C350.64 557.708 346.232 558.527 341.766 558.781C339.97 558.882 340.31 561.661 342.104 561.558Z" fill="#FFFAF1"/>
<path d="M338.885 562.112C343.799 563.687 348.712 565.26 353.626 566.835C356.174 567.65 358.723 568.459 361.268 569.283C362.997 569.843 365.386 570.462 366.296 572.212C366.63 572.856 366.793 573.766 366.46 574.45C366.017 575.361 364.903 575.291 364.036 575.319C361.49 575.407 358.939 575.41 356.391 575.419C351.135 575.433 345.88 575.33 340.628 575.124C338.849 575.054 338.415 577.82 340.215 577.89C344.963 578.077 349.713 578.18 354.464 578.196C356.825 578.203 359.184 578.189 361.544 578.152C363.417 578.123 365.769 578.425 367.442 577.393C370.343 575.601 369.74 571.442 367.563 569.351C366.252 568.093 364.521 567.418 362.824 566.86C360.507 566.097 358.177 565.37 355.853 564.625C350.575 562.935 345.299 561.245 340.021 559.553C338.32 559.01 337.172 561.563 338.885 562.112Z" fill="#E2DDD5"/>
<path d="M346.856 578.243C347.751 573.505 342.707 569.615 342.165 564.824C341.79 561.514 343.629 558.289 343.461 554.963C343.264 551.068 340.273 547.756 336.77 546.039C333.266 544.323 329.29 543.906 325.409 543.514C312.515 542.213 299.619 540.911 286.723 539.609C281.276 539.06 275.324 538.626 270.772 541.67C267.368 543.947 265.389 547.772 263.553 551.43C262.078 554.37 260.587 557.85 262.02 560.811C262.699 562.214 263.952 563.253 265.265 564.091C279.162 572.947 298.424 562.174 313.713 568.319C318.514 570.247 322.551 573.732 327.3 575.78C332.29 577.93 337.991 578.39 343.26 577.071" fill="#FFFAF1"/>
<path d="M343.696 577.211C342.947 574.222 340.356 571.685 337.505 570.252C333.928 568.455 329.873 567.853 326.149 566.387C319.072 563.601 313.393 557.787 306.091 555.661C297.475 553.154 288.368 556.202 279.487 557.479C273.646 558.319 266.992 557.936 261.926 555.327C261.674 556.156 261.513 556.991 261.475 557.815L266.107 564.587C279.934 572.516 298.732 562.3 313.719 568.322C318.519 570.25 322.556 573.736 327.306 575.783C332.295 577.934 337.997 578.394 343.266 577.074L343.696 577.211Z" fill="#E2DDD5"/>
<path fill-rule="evenodd" clip-rule="evenodd" d="M368.968 405.391L360.203 525.437C359.712 532.162 354.677 537.705 347.932 537.705H227.368C220.622 537.705 215.59 532.166 215.097 525.437L206.332 405.391H368.968Z" fill="#9A5C00"/>
<path fill-rule="evenodd" clip-rule="evenodd" d="M365.577 361.375C373.675 361.375 380.301 368.004 380.301 376.097V405.391C318.534 405.391 256.766 405.391 195 405.391V376.097C195 368 201.628 361.375 209.725 361.375H226.116C228.041 361.375 229.622 362.954 229.622 364.88V368.603H241.888V364.88C241.888 362.953 243.466 361.375 245.394 361.375H260.647C262.574 361.375 264.152 362.953 264.152 364.88V368.603H276.518V364.88C276.518 362.953 278.096 361.375 280.023 361.375H295.276C297.204 361.375 298.782 362.953 298.782 364.88V368.603H311.147V364.88C311.147 362.953 312.724 361.375 314.652 361.375H329.906C331.833 361.375 333.411 362.953 333.411 364.88V368.603H345.677V364.88C345.677 362.953 347.259 361.375 349.185 361.375H365.577Z" fill="#9A5C00"/>
<path fill-rule="evenodd" clip-rule="evenodd" d="M241.89 368.603H229.623V391.727C229.623 393.462 231.042 394.882 232.778 394.882H238.735C240.47 394.882 241.89 393.462 241.89 391.727V368.603Z" fill="#513000"/>
<path fill-rule="evenodd" clip-rule="evenodd" d="M276.421 368.603H264.153V391.727C264.153 393.462 265.574 394.882 267.31 394.882H273.267C275.001 394.882 276.421 393.462 276.421 391.727V368.603Z" fill="#513000"/>
<path fill-rule="evenodd" clip-rule="evenodd" d="M310.953 368.603H298.686V391.727C298.686 393.462 300.105 394.882 301.84 394.882H307.797C309.534 394.882 310.953 393.462 310.953 391.727V368.603Z" fill="#513000"/>
<path fill-rule="evenodd" clip-rule="evenodd" d="M345.484 368.603H333.218V391.727C333.218 393.462 334.636 394.882 336.372 394.882H342.329C344.064 394.882 345.484 393.462 345.484 391.727V368.603Z" fill="#513000"/>
<path d="M380.301 405.39H195V413.877H380.301V405.39Z" fill="#513000"/>
<path opacity="0.5" fill-rule="evenodd" clip-rule="evenodd" d="M227.37 537.705H347.933C354.679 537.705 359.714 532.162 360.204 525.437L362.051 500.129H213.251L215.098 525.437C215.591 532.166 220.624 537.705 227.37 537.705Z" fill="#513000"/>
<path fill-rule="evenodd" clip-rule="evenodd" d="M232.425 426.244H239.084C240.626 426.244 241.888 427.505 241.888 429.048V484.958C241.888 486.5 240.627 487.763 239.084 487.763H232.425C230.883 487.763 229.621 486.501 229.621 484.958V429.048C229.622 427.505 230.883 426.244 232.425 426.244ZM336.023 426.244H342.68C344.221 426.244 345.484 427.505 345.484 429.048V484.958C345.484 486.5 344.222 487.763 342.68 487.763H336.023C334.479 487.763 333.218 486.501 333.218 484.958V429.048C333.218 427.505 334.479 426.244 336.023 426.244ZM301.488 426.244H308.147C309.689 426.244 310.951 427.505 310.951 429.048V484.958C310.951 486.5 309.69 487.763 308.147 487.763H301.488C299.948 487.763 298.684 486.501 298.684 484.958V429.048C298.684 427.505 299.948 426.244 301.488 426.244ZM266.956 426.244H273.617C275.157 426.244 276.42 427.505 276.42 429.048V484.958C276.42 486.5 275.158 487.763 273.617 487.763H266.956C265.416 487.763 264.152 486.501 264.152 484.958V429.048C264.152 427.505 265.415 426.244 266.956 426.244Z" fill="#754600"/>
<path fill-rule="evenodd" clip-rule="evenodd" d="M230.548 540.884H239.029C240.777 540.884 242.208 539.454 242.208 537.705H227.368C227.368 539.454 228.798 540.884 230.548 540.884Z" fill="#513000"/>
<path fill-rule="evenodd" clip-rule="evenodd" d="M336.273 540.884H344.752C346.501 540.884 347.932 539.454 347.932 537.705H333.094C333.094 539.454 334.521 540.884 336.273 540.884Z" fill="#513000"/>
<path d="M330.912 543.913C330.728 540.872 330.544 537.83 330.362 534.787C330.289 533.596 330.238 532.317 330.845 531.298C331.908 529.513 334.348 529.42 336.377 529.534C337.107 529.574 337.906 529.645 338.429 530.17C339.085 530.827 339.042 531.905 338.953 532.841C338.555 537.038 338.155 541.237 337.757 545.434" fill="#E7987A"/>
<path d="M310.144 555.364C315.23 555.576 319.397 555.743 324.481 555.954C326.036 556.02 338.387 555.829 340.164 555.871C340.752 555.885 341.398 555.876 341.841 555.453C342.361 554.958 342.393 554.096 342.361 553.34C342.237 550.351 341.743 547.382 340.897 544.537C340.705 543.89 340.419 543.167 339.826 542.964C339.28 542.778 338.715 543.116 338.217 543.422C336.202 544.662 336.066 544.651 333.681 544.075C333.095 543.933 330.816 543.112 330.262 542.861C329.648 542.584 328.953 542.7 328.3 542.832C322.667 543.968 317.174 545.926 312.009 548.637C310.836 549.252 309.627 549.959 308.929 551.163C308.233 552.367 308.284 554.206 309.373 554.985" fill="#346174"/>
<path d="M354.036 556.191C359.125 556.195 363.294 556.191 368.384 556.195C369.941 556.196 382.273 555.502 384.051 555.47C384.638 555.46 385.283 555.424 385.709 554.984C386.21 554.468 386.209 553.604 386.149 552.851C385.911 549.87 385.302 546.923 384.347 544.115C384.13 543.476 383.818 542.766 383.218 542.588C382.667 542.424 382.113 542.784 381.628 543.112C379.664 544.434 379.526 544.427 377.122 543.95C376.531 543.831 374.222 543.105 373.658 542.876C373.034 542.624 372.344 542.768 371.696 542.926C366.112 544.292 360.698 546.473 355.64 549.394C354.493 550.056 353.309 550.814 352.661 552.044C352.012 553.275 352.134 555.111 353.251 555.846" fill="#346174"/>
<path d="M352.476 386.072C349.528 429.57 347.875 475.011 341.272 517.969C340.747 521.384 340.828 535.614 339.339 536.074C337.257 536.714 335.388 536.75 333.321 536.7C331.611 536.658 329.672 535.564 329.579 533.844C326.166 470.929 317.341 399.489 321.981 336.807C322.146 334.59 347.588 333.953 347.588 333.953" fill="#8FAEB7"/>
<path d="M377.563 371.296C380.163 415.538 383.189 477.579 382.036 521.778C381.944 525.291 382.733 535.65 381.291 536.316C379.274 537.247 377.394 537.538 375.303 537.771C373.574 537.963 372.004 536.809 371.69 535.088C360.189 472.149 340.636 406.573 337.284 342.767C337.165 340.51 364.824 335.456 364.824 335.456" fill="#9BB9C4"/>
<path d="M374.221 397.847C366.421 393.181 361.68 384.312 361.741 375.273C361.753 373.701 359.311 373.7 359.299 375.273C359.233 385.166 364.462 394.855 372.988 399.954C374.339 400.764 375.569 398.654 374.221 397.847Z" fill="#8FAEB7"/>
<path d="M297.84 357.234C296.89 357.309 296.828 356.289 296.774 355.338C295.124 326.466 296.754 302.158 306.949 274.997C308.756 270.181 310.893 265.21 315.525 262.5C317.705 261.223 320.32 260.705 322.748 261.403C327.9 262.881 329.13 268.189 329.077 272.853C328.958 283.2 324.388 292.89 320.449 302.459C313.427 319.524 310.27 325.264 305.305 354.865C305.177 355.632 305.074 356.818 304.298 356.879L297.84 357.234Z" fill="white"/>
<path d="M377.811 372.951C383.849 371.253 376.813 352.165 376.386 346.19C374.491 319.675 370.388 305.034 368.06 277.617C367.609 272.304 364.3 260.541 359.392 258.116C356.699 256.786 350.363 254.216 347.312 254.487C335.856 255.511 334.852 255.505 323.637 258.116C321.32 258.655 316.291 262.089 314.427 263.533C309.655 267.228 307.648 280.475 307.925 286.282C309.35 316.044 311.078 337.32 315.148 364.62C315.856 369.358 320.741 372.344 325.574 370.984L344.236 366.73C355.652 364.127 367.636 366.282 377.429 372.697L377.811 372.951Z" fill="#F2AE25"/>
<path d="M300.289 215.822C298.773 215.667 297.067 215.069 296.448 213.54C295.829 212.012 297.474 209.888 298.719 210.871C297.795 206.97 298.452 202.285 301.45 200.035C304.449 197.786 309.731 199.89 309.755 203.899C309.818 199.366 313.929 195.543 318.072 196.044C322.215 196.544 325.596 201.127 325.267 205.641C327.385 201.477 333.546 201.424 336.594 204.964C339.641 208.504 339.704 214.228 337.644 218.426C341.866 219.314 344.392 224.928 343.208 229.391C342.081 233.639 338.369 236.574 334.378 237.486C333.626 238.502 332.733 239.299 331.674 239.798L321.213 239.543C310.962 237.657 300.969 228.886 301.101 218.429C301.112 217.579 300.792 216.699 300.49 215.836C300.423 215.826 300.356 215.829 300.289 215.822Z" fill="#346174"/>
<path d="M301.932 238.229C301.552 236.444 301.795 236.71 300.871 234.257C300.806 234.089 300.735 233.922 300.671 233.752C299.345 230.282 298.283 226.614 298.663 222.822C299.042 219.029 301.087 215.062 304.73 212.894C309.266 210.197 315.094 210.889 319.593 212.886C323.606 214.666 327.035 217.521 329.211 221.02C331.859 220.133 334.742 221.707 335.121 223.919C335.477 225.997 333.966 228.265 331.799 229.675L331.835 229.99C332.25 233.67 331.85 236.558 330.923 238.971C331.039 239.198 331.157 239.422 331.273 239.649C331.577 240.246 331.882 240.843 332.187 241.439C332.187 241.442 332.186 241.443 332.186 241.446C333.921 244.866 336.574 250.136 338.49 253.919C339.403 255.723 339.119 257.674 338.323 259.297C337.465 261.041 335.691 263.101 335.691 263.101C334.044 265.481 329.748 266.729 327.014 265.38L325.226 264.288C324.264 263.814 323.948 262.213 323.493 261.152C322.337 258.459 320.69 254.721 319.198 251.309C318.178 251.887 316.987 252.392 316.07 252.623C312.635 253.491 309.861 250.712 308.122 248.123C307.065 246.55 306.078 244.937 305.151 243.29C304.842 243.743 304.349 244.036 303.767 244.141C303.181 244.246 302.73 244.216 302.185 243.967C301.207 243.517 300.9 242.138 301.477 241.256C302.206 240.137 301.976 238.438 301.932 238.229Z" fill="#E7987A"/>
<path d="M289.139 211.257C289.509 207.794 292.066 204.703 295.317 203.788C301.642 202.01 308.206 208 314.569 206.367C316.083 205.979 317.477 205.17 319.003 204.828C323.118 203.904 327.42 206.7 329.436 210.535C331.452 214.37 331.574 218.972 331.008 223.286L329.609 223.904C329.578 223.875 329.544 223.85 329.514 223.82C329.272 224.804 329.036 225.793 328.823 226.7C328.594 227.676 327.335 227.884 326.819 227.029C323.76 221.972 320.793 218.915 315.574 218.062C314.211 218.011 312.845 218.089 311.5 218.322C308.472 218.845 305.589 220.028 302.589 220.701C299.588 221.375 296.3 221.493 293.588 219.987C290.613 218.336 288.77 214.721 289.139 211.257Z" fill="#346174"/>
<path d="M353.754 255.118C368.06 258.118 373.389 273.249 379.291 285.398C382.622 292.258 385.844 299.191 388.315 306.408C389.855 310.904 391.049 316.058 388.787 320.239C386.923 323.682 383.167 325.588 379.607 327.224C362.499 335.084 333.504 345.535 329.327 345.624C328.105 346.135 326.661 337.295 326.528 336.784C326.237 335.666 328.47 335.427 330.891 334.042C339.399 329.175 347.32 323.059 356.14 318.785C364.003 314.975 369.142 311.743 368.6 308.493C367.67 302.915 359.538 294.627 356.14 291.16C350.799 285.711 346.447 278.558 344.763 271.118C343.08 263.677 344.802 259.123 351.513 255.498" fill="white"/>
<path d="M325.99 337.559C325.28 337.13 325.762 337.448 324.176 337.185C321.687 336.771 319.49 336.245 317.175 337.334C316.344 337.725 315.561 338.224 315.044 338.865C314.526 339.505 314.301 340.303 314.611 340.951" fill="#E7987A"/>
<path d="M303.759 355.54C304.789 357.178 305.883 359.008 306.584 360.858C307.284 362.71 308.335 364.384 307.916 366.33C307.765 367.029 307.512 367.713 307.079 368.229C306.646 368.745 306.014 369.073 305.392 368.974" fill="#E7987A"/>
<path d="M303.734 358.003C304.698 359.682 305.715 361.554 306.341 363.432C306.966 365.31 307.947 367.026 307.45 368.954C307.272 369.646 306.991 370.32 306.537 370.818C306.083 371.316 305.438 371.619 304.82 371.493" fill="#E7987A"/>
<path d="M297.426 357.114C296.484 362.207 295.442 366.844 295.283 372.004C295.266 372.522 295.258 373.058 295.475 373.538C295.692 374.018 296.194 374.435 296.771 374.424C297.252 374.414 297.661 374.127 298.031 373.853C300.317 372.163 302.603 370.473 304.891 368.783C305.743 368.154 306.176 368.052 306.522 367.111C306.835 366.261 306.031 364.056 305.815 363.182C305.144 360.453 305.452 359.457 304.26 356.875" fill="#E7987A"/>
<path d="M295.294 371.864C295.294 374.071 296.525 376.233 298.003 377.805C298.375 378.2 298.85 378.615 299.425 378.583C300.007 378.551 300.442 378.043 300.54 377.526C300.637 377.01 300.478 376.486 300.335 375.978C299.75 373.911 299.384 371.794 299.244 369.666C299.146 368.187 299.177 366.631 299.966 365.33" fill="#E7987A"/>
<path d="M298.033 374.642C299.141 375.636 299.992 377.138 301.447 377.394C301.853 377.465 302.324 377.4 302.568 377.072C302.715 376.875 302.753 376.616 302.779 376.37C302.999 374.262 302.377 371.351 301.475 369.414" fill="#E7987A"/>
<path d="M299.975 372.841C301.083 373.835 301.933 375.337 303.388 375.593C303.795 375.664 304.265 375.598 304.509 375.271C304.657 375.074 304.843 374.614 304.868 374.366C305.088 372.259 304.318 369.55 303.416 367.611" fill="#E7987A"/>
<path d="M305.11 360.394C306.167 364.366 306.611 367.909 306.878 371.986C306.944 372.974 306.356 373.868 305.813 373.878C305.535 373.882 304.871 373.559 304.676 373.381C303.486 372.285 303.409 370.889 303.034 369.397C302.796 368.445 302.592 367.487 302.422 366.524" fill="#E7987A"/>
<path fill-rule="evenodd" clip-rule="evenodd" d="M266.368 390.876C257.113 396.499 264.727 400.975 271.374 400.975H300.561H329.746C336.392 400.975 344.008 396.499 334.754 390.876C336.313 330.222 311.902 328.463 300.561 328.463C289.219 328.464 264.807 330.222 266.368 390.876Z" fill="#899958"/>
<path fill-rule="evenodd" clip-rule="evenodd" d="M311.165 313.365L306.343 324.883L305.079 326.897L300.562 328.443L296.045 326.897L294.779 324.883L289.958 313.365C289.348 311.588 290.987 310.276 293.049 310.276C295.109 310.276 300.562 310.276 300.562 310.276C300.562 310.276 306.014 310.276 308.074 310.276C310.134 310.276 311.774 311.588 311.165 313.365Z" fill="#899958"/>
<path fill-rule="evenodd" clip-rule="evenodd" d="M306.343 324.883H294.778C292.819 324.883 291.218 326.487 291.218 328.443V328.445C291.218 330.404 292.819 332.006 294.778 332.006H306.343C308.303 332.006 309.904 330.404 309.904 328.445V328.443C309.904 326.486 308.303 324.883 306.343 324.883Z" fill="#100843"/>
<path fill-rule="evenodd" clip-rule="evenodd" d="M296.126 366.48L300.569 359.269C300.647 359.03 300.744 358.518 300.403 357.964L295.647 350.227V350.226C295.625 350.195 295.309 349.711 294.987 350.232L288.043 361.505C287.826 361.855 287.935 362.32 288.289 362.537L295.094 366.728C295.445 366.943 295.91 366.834 296.126 366.48Z" fill="white"/>
<path fill-rule="evenodd" clip-rule="evenodd" d="M303.978 361.699L296.205 349.056C296.09 348.867 296.15 348.62 296.338 348.503L304.82 346.955C305.299 346.867 305.99 346.843 306.162 347.125L312.066 356.728C312.269 357.007 312.578 357.09 312.878 356.903C313.473 356.537 314.066 356.172 314.662 355.807C314.81 355.716 314.989 355.727 315.122 355.834C315.258 355.943 315.308 356.116 315.25 356.279L312.472 364.34C311.887 366.033 312.279 365.73 310.505 365.486L302.139 364.336C301.967 364.314 301.837 364.192 301.8 364.022C301.765 363.854 301.836 363.689 301.983 363.599C302.576 363.232 303.172 362.869 303.768 362.502C304.069 362.317 304.134 362.007 303.978 361.699Z" fill="white"/>
<path fill-rule="evenodd" clip-rule="evenodd" d="M308.931 369.046L312.62 376.671C312.779 376.864 313.159 377.222 313.808 377.234L322.892 377.388H322.894C322.929 377.388 323.51 377.379 323.243 376.827L317.475 364.909C317.297 364.54 316.845 364.382 316.474 364.563L309.277 368.044C308.908 368.222 308.749 368.674 308.931 369.046Z" fill="white"/>
<path fill-rule="evenodd" clip-rule="evenodd" d="M308.538 378.046L323.381 378.297C323.602 378.3 323.779 378.484 323.774 378.704L320.518 386.687C320.333 387.14 319.982 387.733 319.654 387.729L308.379 387.537C308.036 387.56 307.801 387.772 307.796 388.127C307.783 388.824 307.773 389.523 307.76 390.22C307.758 390.392 307.651 390.539 307.49 390.593C307.326 390.648 307.153 390.598 307.046 390.462L301.745 383.782C300.631 382.379 300.674 382.875 301.837 381.508L307.307 375.077C307.419 374.944 307.593 374.9 307.752 374.962C307.914 375.021 308.016 375.169 308.014 375.343C308 376.039 307.991 376.738 307.978 377.436C307.971 377.789 308.198 378.012 308.538 378.046Z" fill="white"/>
<path fill-rule="evenodd" clip-rule="evenodd" d="M299.333 377.909L290.867 377.668C290.619 377.72 290.127 377.892 289.818 378.463L285.496 386.452H285.492C285.477 386.484 285.218 387.003 285.83 387.021L299.065 387.397C299.478 387.409 299.824 387.081 299.836 386.669L300.064 378.68C300.074 378.267 299.746 377.919 299.333 377.909Z" fill="white"/>
<path fill-rule="evenodd" clip-rule="evenodd" d="M291.404 373.513L284.339 386.568C284.233 386.761 283.99 386.833 283.796 386.728L278.211 380.16C277.895 379.787 277.531 379.202 277.688 378.91L283.054 368.997C283.192 368.683 283.11 368.375 282.799 368.206C282.184 367.873 281.571 367.542 280.958 367.21C280.805 367.127 280.727 366.967 280.753 366.796C280.777 366.626 280.905 366.497 281.072 366.464L289.445 364.839C291.205 364.497 290.744 364.308 291.421 365.968L294.609 373.788C294.673 373.948 294.633 374.123 294.506 374.238C294.378 374.352 294.199 374.374 294.047 374.291C293.432 373.96 292.818 373.628 292.205 373.296C291.891 373.127 291.591 373.227 291.404 373.513Z" fill="white"/>
<path d="M328.861 345.402C324.763 348.226 323.307 349.043 317.38 351.423C316.82 351.648 314.31 352.355 313.72 352.399C313.13 352.444 312.493 352.197 312.276 351.668C312.095 351.23 312.236 350.715 312.376 350.243C313.245 347.331 314.114 344.419 314.981 341.507C315.306 340.421 314.643 340.119 315.492 339.335C316.261 338.627 319.944 338.238 320.948 337.995C324.079 337.239 323.655 337.325 326.527 336.56" fill="#E7987A"/>
<path d="M322.396 348.911C320.419 350.551 312.97 353.25 310.666 353.265C310.086 353.269 308.764 353.03 308.444 352.556C308.119 352.078 308.31 351.362 308.712 350.903C309.116 350.443 309.68 350.178 310.221 349.913C312.427 348.834 314.544 347.548 316.535 346.077C317.917 345.055 319.293 343.876 319.978 342.295" fill="#E7987A"/>
<path d="M312.874 350.385C311.331 350.102 309.436 350.364 308.426 349.313C308.143 349.019 307.959 348.582 308.149 348.168C308.263 347.916 308.492 347.716 308.718 347.536C310.638 345.986 313.775 344.619 316.12 344.118" fill="#E7987A"/>
<path d="M313.433 347.498C311.987 346.892 310.079 346.745 309.315 345.502C309.102 345.155 309.016 344.689 309.289 344.323C309.454 344.101 309.887 343.733 310.148 343.602C312.354 342.496 315.542 342.054 317.941 342.065" fill="#E7987A"/>
<path d="M325.072 337.094C320.389 337.545 316.745 338.909 312.168 340.147C311.059 340.446 310.235 341.329 310.377 341.846C310.45 342.112 310.994 342.623 311.246 342.741C312.79 343.468 314.353 343.03 316.108 342.839C317.225 342.716 318.341 342.561 319.453 342.368" fill="#E7987A"/>
</g>
</g>
<defs>
<linearGradient id="paint0_linear_93_901" x1="-721.963" y1="307.68" x2="590.531" y2="307.68" gradientUnits="userSpaceOnUse">
<stop stop-color="#0AB8FC" stop-opacity="0.3"/>
<stop offset="1" stop-color="#0AB8FC" stop-opacity="0.8"/>
</linearGradient>
<clipPath id="clip0_93_901">
<rect width="360" height="640" fill="white"/>
</clipPath>
<clipPath id="clip1_93_901">
<rect width="360" height="641" fill="white"/>
</clipPath>
</defs>
</svg>
